<?xml version="1.0" encoding="UTF-8"?>
<svg version="1.1" xmlns="http://www.w3.org/2000/svg" width="600" height="143">
<path d="M0 0 C0.99451172 -0.03222656 1.98902344 -0.06445312 3.01367188 -0.09765625 C12.24822908 -0.10978305 17.39832064 3.65307101 24.125 9.5625 C32.00038938 17.89258853 37.69100503 28.20488104 42.8125 38.375 C43.2029248 39.14948486 43.59334961 39.92396973 43.99560547 40.72192383 C46.6875 46.23229675 46.6875 46.23229675 46.6875 49.625 C47.29746826 49.60928955 47.90743652 49.5935791 48.53588867 49.57739258 C51.3154971 49.51480187 54.09495692 49.47593378 56.875 49.4375 C57.83470703 49.41236328 58.79441406 49.38722656 59.78320312 49.36132812 C68.76166443 49.2681261 68.76166443 49.2681261 72.6875 52.625 C77.66822676 62.58645353 71.58667099 80.03748344 68.296875 90.015625 C63.07418114 104.90073844 54.72739287 122.03088193 41.6875 131.625 C40.6975 131.625 39.7075 131.625 38.6875 131.625 C38.51734375 130.88894531 38.3471875 130.15289062 38.171875 129.39453125 C36.51447228 122.72084052 35.23289284 117.9210973 29.21679688 114.02490234 C24.41542391 112.12042859 20.15065986 112.19478358 15.03125 112.2265625 C14.01075562 112.22369232 12.99026123 112.22082214 11.93884277 112.21786499 C9.78718509 112.21582892 7.63550871 112.22132673 5.48388672 112.23388672 C2.19847048 112.24994637 -1.08571558 112.23402198 -4.37109375 112.21484375 C-6.46614854 112.21682626 -8.56120256 112.2206701 -10.65625 112.2265625 C-12.12366638 112.21745346 -12.12366638 112.21745346 -13.62072754 112.2081604 C-18.93502718 112.26271639 -22.73308589 112.62055014 -27.3125 115.625 C-31.89121977 120.45809309 -33.40541659 125.12423556 -34.3125 131.625 C-40.95543908 130.69772475 -45.63376611 124.08751948 -49.5390625 119.03955078 C-61.60385979 102.3755489 -72.33346405 77.59250207 -70.3125 56.625 C-68.56912601 52.83316158 -67.14397165 51.18115901 -63.3125 49.625 C-61.11425781 49.30615234 -61.11425781 49.30615234 -58.765625 49.2109375 C-57.92128906 49.17226563 -57.07695313 49.13359375 -56.20703125 49.09375 C-55.33433594 49.0628125 -54.46164063 49.031875 -53.5625 49 C-52.23025391 48.94199219 -52.23025391 48.94199219 -50.87109375 48.8828125 C-48.6851002 48.78879127 -46.49910938 48.70313857 -44.3125 48.625 C-43.71115234 47.1709375 -43.71115234 47.1709375 -43.09765625 45.6875 C-23.81480933 -0.15256124 -23.81480933 -0.15256124 0 0 Z M-12.375 12.75 C-19.45269486 19.42914505 -24.14266687 26.82857955 -28.6875 35.375 C-29.34951416 36.61781738 -29.34951416 36.61781738 -30.02490234 37.88574219 C-30.43691895 38.68141602 -30.84893555 39.47708984 -31.2734375 40.296875 C-31.64259277 41.0094043 -32.01174805 41.72193359 -32.39208984 42.45605469 C-33.56746701 45.02224435 -33.56746701 45.02224435 -34.3125 49.625 C-10.5525 49.625 13.2075 49.625 37.6875 49.625 C26.64966707 24.69691071 26.64966707 24.69691071 5.6875 7.625 C-1.45334487 5.45169939 -6.88012384 8.17979352 -12.375 12.75 Z " fill="#057855" transform="translate(73.3125,0.375)"/>
<path d="M0 0 C0.495 0.99 0.495 0.99 1 2 C1.99 2.33 2.98 2.66 4 3 C6.02874309 5.98972666 6.59324329 8.44054023 6 12 C3.83577594 14.9046165 1.55726477 17.44273523 -1 20 C-0.44570313 20.31453125 0.10859375 20.6290625 0.6796875 20.953125 C1.40414062 21.38109375 2.12859375 21.8090625 2.875 22.25 C3.95394531 22.87648438 3.95394531 22.87648438 5.0546875 23.515625 C7 25 7 25 8.0078125 27.046875 C9.27147904 29.53440756 10.52979322 29.82146623 13 31 C16.32896578 34.73194585 18.32148116 38.45258816 18.3125 43.5 C18.209375 44.655 18.10625 45.81 18 47 C18.66 47 19.32 47 20 47 C21.11520565 50.5845896 21.13337312 53.94890297 21.125 57.6875 C21.12886719 59.42580078 21.12886719 59.42580078 21.1328125 61.19921875 C21 64 21 64 20 65 C19.63239269 67.32817964 19.29758419 69.6618385 19 72 C18.34 72 17.68 72 17 72 C17.2475 72.70125 17.495 73.4025 17.75 74.125 C18.10243945 78.17805363 16.40968375 79.83298707 14 83 C13.34 83.99 12.68 84.98 12 86 C10.515 86.495 10.515 86.495 9 87 C7.76595192 88.49384768 6.53340341 89.98908438 5.3203125 91.5 C3.4446071 93.63097892 1.58080307 94.83863862 -1 96 C-2.66617115 96.04063832 -4.33388095 96.042721 -6 96 C-6.60813538 96.32592133 -7.21627075 96.65184265 -7.84283447 96.98764038 C-10.41532688 98.19491326 -12.12110036 98.20821906 -14.95214844 98.13525391 C-15.93286316 98.11508209 -16.91357788 98.09491028 -17.92401123 98.0741272 C-18.97518127 98.04193085 -20.02635132 98.0097345 -21.109375 97.9765625 C-22.19132141 97.95153656 -23.27326782 97.92651062 -24.38800049 97.90072632 C-27.8423216 97.81858152 -31.29606634 97.72196937 -34.75 97.625 C-37.0924244 97.56675488 -39.43487243 97.50945173 -41.77734375 97.453125 C-47.51868361 97.31477946 -53.25901687 97.15688063 -59 97 C-59.33 85.45 -59.66 73.9 -60 62 C-61.485 61.505 -61.485 61.505 -63 61 C-64.4375 54.77083333 -64.4375 54.77083333 -62.6875 51.6875 C-59.3202213 49.57316221 -56.28218261 49.20775798 -52.40234375 48.546875 C-47.57888189 47.44885116 -45.46038438 44.6470267 -42.6875 40.75 C-42.130625 39.8425 -41.57375 38.935 -41 38 C-47.61647775 31.38352225 -59.64929861 36.34632227 -69 36 C-69 56.13 -69 76.26 -69 97 C-73 98 -73 98 -75.18359375 96.7421875 C-75.92738281 96.12601562 -76.67117188 95.50984375 -77.4375 94.875 C-78.21996094 94.22917969 -79.00242187 93.58335938 -79.80859375 92.91796875 C-86.44532488 87.10935024 -86.44532488 87.10935024 -88 84 C-88.06270723 81.93632391 -88.05759503 79.87046938 -88.02172852 77.80615234 C-88.00163223 76.50495453 -87.98153595 75.20375671 -87.96083069 73.86312866 C-87.93363216 72.43739618 -87.90632135 71.01166583 -87.87890625 69.5859375 C-87.85460795 68.13148733 -87.83076424 66.6770295 -87.80735779 65.2225647 C-87.74448794 61.39200117 -87.67542958 57.56157304 -87.60510254 53.73114014 C-87.5220252 49.13653464 -87.44659814 44.54179802 -87.36989594 39.94708252 C-87.25247306 32.96460332 -87.12530468 25.98236226 -87 19 C-69.675 18.505 -69.675 18.505 -52 18 C-52.495 17.01 -52.495 17.01 -53 16 C-53.54284928 11.9286304 -53.31889873 10.4408306 -50.875 7.0625 C-48 5 -48 5 -44.8125 4.875 C-42 6 -42 6 -40.6875 8.25 C-40.04351637 10.82593452 -39.44866541 13.38278513 -39 16 C-38.030625 16.309375 -37.06125 16.61875 -36.0625 16.9375 C-33 18 -33 18 -32 19 C-30.3603125 18.7525 -30.3603125 18.7525 -28.6875 18.5 C-25 18 -25 18 -22.875 18.75 C-22.25625 18.8325 -21.6375 18.915 -21 19 C-17.38172682 15.89862299 -14.21871114 13.01214246 -13.6875 8.125 C-12.80589642 4.11771101 -11.07567049 2.62557237 -8 0 C-5.09660535 -1.45169732 -3.09125158 -0.72348441 0 0 Z M-8 7 C-7 11 -7 11 -7 11 Z M-13 8 C-12 11 -12 11 -12 11 Z M-6 8 C-5.67 8.99 -5.34 9.98 -5 11 C-4.01 10.67 -3.02 10.34 -2 10 C-2.33 9.34 -2.66 8.68 -3 8 C-3.99 8 -4.98 8 -6 8 Z M-52 11 C-51 15 -51 15 -51 15 Z M3 11 C4 13 4 13 4 13 Z M-51 15 C-50 17 -50 17 -50 17 Z M-6 17 C-2 18 -2 18 -2 18 Z M-48 18 C-44 19 -44 19 -44 19 Z M-18 18 C-17 20 -17 20 -17 20 Z M-12 18 C-13.32 19.32 -14.64 20.64 -16 22 C-15.01 22.33 -14.02 22.66 -13 23 C-12.01 21.68 -11.02 20.36 -10 19 C-10.66 18.67 -11.32 18.34 -12 18 Z M-9 19 C-8.34 19.66 -7.68 20.32 -7 21 C-6.01 20.67 -5.02 20.34 -4 20 C-5.65 19.67 -7.3 19.34 -9 19 Z M-49 20 C-49 20.33 -49 20.66 -49 21 C-47.35 21 -45.7 21 -44 21 C-44 20.67 -44 20.34 -44 20 C-45.65 20 -47.3 20 -49 20 Z M-42 26 C-41 28 -41 28 -41 28 Z M-30.75 27.25 C-32.26475087 28.94485784 -32.26475087 28.94485784 -31.6875 31.1875 C-31.460625 31.785625 -31.23375 32.38375 -31 33 C-30.773125 32.360625 -30.54625 31.72125 -30.3125 31.0625 C-29 29 -29 29 -26.375 28.25 C-25.59125 28.1675 -24.8075 28.085 -24 28 C-24.66 27.34 -25.32 26.68 -26 26 C-28.95156348 25.7093809 -28.95156348 25.7093809 -30.75 27.25 Z M-36 28 C-35 30 -35 30 -35 30 Z M-19 29 C-18 32 -18 32 -18 32 Z M-43 30 C-42 33 -42 33 -42 33 Z M-36 32 C-35 34 -35 34 -35 34 Z M-13 32 C-13.680625 33.175625 -13.680625 33.175625 -14.375 34.375 C-16 37 -16 37 -19 39 C-16.69 39.33 -14.38 39.66 -12 40 C-12 40.66 -12 41.32 -12 42 C-10.35 42 -8.7 42 -7 42 C-7.66 41.34 -8.32 40.68 -9 40 C-8.67 39.34 -8.34 38.68 -8 38 C-9.32 37.67 -10.64 37.34 -12 37 C-12 35.35 -12 33.7 -12 32 C-12.33 32 -12.66 32 -13 32 Z M-40 35 C-39 37 -39 37 -39 37 Z M-34 36 C-33.67 36.99 -33.34 37.98 -33 39 C-32.34 38.67 -31.68 38.34 -31 38 C-31.99 37.34 -32.98 36.68 -34 36 Z M-39 37 C-38 39 -38 39 -38 39 Z M-26 38 C-27.65 38.33 -29.3 38.66 -31 39 C-31 39.33 -31 39.66 -31 40 C-29.02 40 -27.04 40 -25 40 C-25.33 39.34 -25.66 38.68 -26 38 Z M-20 39 C-19 41 -19 41 -19 41 Z M-38 39 C-38.66 39.66 -39.32 40.32 -40 41 C-39.01 41.33 -38.02 41.66 -37 42 C-37 41.01 -37 40.02 -37 39 C-37.33 39 -37.66 39 -38 39 Z M-25 40 C-24 42 -24 42 -24 42 Z M-38.04296875 45.94140625 C-42.84932016 51.35898652 -42.84932016 51.35898652 -44.5 58.125 C-44.335 59.07375 -44.17 60.0225 -44 61 C-43.67 61 -43.34 61 -43 61 C-42.67 67.27 -42.34 73.54 -42 80 C-33.42 80 -24.84 80 -16 80 C-16 79.67 -16 79.34 -16 79 C-24.25 79 -32.5 79 -41 79 C-40.67 78.34 -40.34 77.68 -40 77 C-39.14768799 77.01571045 -38.29537598 77.0314209 -37.41723633 77.04760742 C-34.23968774 77.09888962 -31.06235087 77.13642482 -27.88452148 77.16479492 C-26.51205483 77.17983432 -25.13963586 77.20027133 -23.76733398 77.22631836 C-21.78911344 77.26291221 -19.81053486 77.27816698 -17.83203125 77.29296875 C-16.64327393 77.3086792 -15.4545166 77.32438965 -14.22973633 77.34057617 C-9.49775652 76.8415882 -6.98867933 75.07342327 -3.8125 71.625 C-0.55646915 66.90936911 0.29278114 63.09346901 0.3125 57.375 C0.32925781 56.24835937 0.34601563 55.12171875 0.36328125 53.9609375 C0.26133539 50.98589952 0.26133539 50.98589952 -1.51953125 49.1015625 C-2.25236328 48.55628906 -2.25236328 48.55628906 -3 48 C-3.185625 48.86625 -3.185625 48.86625 -3.375 49.75 C-4.00648824 52.02335767 -4.88858191 53.9253529 -6 56 C-8.31 56 -10.62 56 -13 56 C-13 55.34 -13 54.68 -13 54 C-13.66 53.67 -14.32 53.34 -15 53 C-15.28875 51.865625 -15.5775 50.73125 -15.875 49.5625 C-16.62103107 45.98758034 -16.62103107 45.98758034 -18.9375 44.5625 C-21.68743175 43.81251861 -23.42608359 43.7130418 -26 45 C-25.81314911 48.39534252 -25.81314911 48.39534252 -25 52 C-24.34 52.495 -23.68 52.99 -23 53.5 C-21 55 -21 55 -20.25 58.6875 C-20.12625 60.3271875 -20.12625 60.3271875 -20 62 C-19.34 61.34 -18.68 60.68 -18 60 C-19.89932116 62.84898175 -21.31341986 64.89430205 -24 67 C-27.4375 67.5625 -27.4375 67.5625 -31 67 C-33.9375 64.875 -33.9375 64.875 -36 62 C-36.52186596 58.73833777 -36.69606425 56.97448995 -34.75 54.25 C-32.90580604 52.9327186 -31.06658163 51.92639866 -29 51 C-29 49.35 -29 47.7 -29 46 C-33.6780107 43.41223664 -33.6780107 43.41223664 -38.04296875 45.94140625 Z M-15 48 C-14 52 -14 52 -14 52 Z M0 49 C1 51 1 51 1 51 Z M19 51 C20 54 20 54 20 54 Z M-62 53 C-61 55 -61 55 -61 55 Z M-56 53 C-52 54 -52 54 -52 54 Z M1 53 C1 56.3 1 59.6 1 63 C1.33 63 1.66 63 2 63 C2 59.7 2 56.4 2 53 C1.67 53 1.34 53 1 53 Z M-53 55 C-52 58 -52 58 -52 58 Z M-51 55 C-50 58 -50 58 -50 58 Z M-46 55 C-45 58 -45 58 -45 58 Z M-11 55 C-7 56 -7 56 -7 56 Z M-36 57 C-35 61 -35 61 -35 61 Z M-31 57 C-30 61 -30 61 -30 61 Z M-28 57 C-28.33 57.99 -28.66 58.98 -29 60 C-27.68 60 -26.36 60 -25 60 C-25.33 59.01 -25.66 58.02 -26 57 C-26.66 57 -27.32 57 -28 57 Z M-24 57 C-23 60 -23 60 -23 60 Z M-56 59 C-56 59.33 -56 59.66 -56 60 C-54.35 60 -52.7 60 -51 60 C-51 59.67 -51 59.34 -51 59 C-52.65 59 -54.3 59 -56 59 Z M-45 61 C-44 63 -44 63 -44 63 Z M-35 61 C-34 63 -34 63 -34 63 Z M0 64 C1 66 1 66 1 66 Z M-57 66 C-57 66.33 -57 66.66 -57 67 C-54.69 67 -52.38 67 -50 67 C-50 66.67 -50 66.34 -50 66 C-52.31 66 -54.62 66 -57 66 Z M-1 67 C0 69 0 69 0 69 Z M14 78 C15 80 15 80 15 80 Z " fill="#0097D7" transform="translate(503,6)"/>
<path d="M0 0 C2.87510623 1.12591573 4.59364377 1.12591573 7.46875 0 C8.29890625 -0.37125 9.1290625 -0.7425 9.984375 -1.125 C16.82120144 -3.90524346 22.15748301 -3.67637441 29.02734375 -1.16015625 C35.79693908 2.01496369 39.6337585 6.96798628 42.234375 13.875 C44.87303499 23.20771016 42.05918781 31.99355084 37.94921875 40.55078125 C31.14448125 52.43537851 20.17392683 67.27230745 7.234375 72.875 C2.59649509 73.80257598 -0.09406354 72.95862281 -4.015625 70.5625 C-18.7122129 59.85819404 -32.70103476 43.23219897 -35.765625 24.875 C-36.33584448 17.46214676 -34.6943694 10.93657666 -30.078125 5.0625 C-21.71393415 -3.92744079 -10.77677198 -4.81942598 0 0 Z " fill="#EC0004" transform="translate(217.765625,36.125)"/>
<path d="M0 0 C8.0369103 0.92188089 14.97820297 5.39098672 20.375 11.375 C23 15 23 15 28 24 C28.33 16.41 28.66 8.82 29 1 C29.33 1 29.66 1 30 1 C30 26.41 30 51.82 30 78 C29.67 78 29.34 78 29 78 C28.67 70.74 28.34 63.48 28 56 C26.68 58.31 25.36 60.62 24 63 C23.01 63.495 23.01 63.495 22 64 C21.67 64.66 21.34 65.32 21 66 C20 68 20 68 18 69 C17.4225 69.763125 16.845 70.52625 16.25 71.3125 C13.74175286 74.30846186 11.43263338 76.14065692 8 78 C5.9375 77.625 5.9375 77.625 4 77 C1.29534258 77.86454438 1.29534258 77.86454438 -1 79 C-1 79.33 -1 79.66 -1 80 C-4.27075883 80.0580476 -7.54138524 80.09361165 -10.8125 80.125 C-11.74126953 80.14175781 -12.67003906 80.15851563 -13.62695312 80.17578125 C-14.51962891 80.18222656 -15.41230469 80.18867187 -16.33203125 80.1953125 C-17.15421143 80.20578613 -17.9763916 80.21625977 -18.82348633 80.22705078 C-21 80 -21 80 -24 78 C-24.886875 78.0825 -25.77375 78.165 -26.6875 78.25 C-31.4984605 77.88690864 -34.60253588 75.33259607 -38 72 C-38.33 71.01 -38.66 70.02 -39 69 C-39.61875 68.855625 -40.2375 68.71125 -40.875 68.5625 C-43.77581439 67.79463737 -44.48034802 66.5327533 -46 64 C-46.33333333 62.66666667 -46.66666667 61.33333333 -47 60 C-47.474375 59.4225 -47.94875 58.845 -48.4375 58.25 C-52.18018738 52.86053017 -52.36130954 45.99063766 -52.3125 39.625 C-52.30903564 38.88620605 -52.30557129 38.14741211 -52.30200195 37.38623047 C-52.18073442 31.26657474 -51.92705554 24.10468688 -47.51953125 19.4296875 C-47.01808594 18.95789063 -46.51664062 18.48609375 -46 18 C-44.0392125 15.23288398 -44.0392125 15.23288398 -43.0625 12.9375 C-41.30004535 9.72361212 -38.18661191 8.53836437 -35 7 C-35 6.34 -35 5.68 -35 5 C-23.94381242 -0.1595542 -11.88890837 0.77502793 0 1 C0 0.67 0 0.34 0 0 Z M-24 21 C-25.18330183 22.86644906 -25.18330183 22.86644906 -26 25 C-26.680625 25.825 -27.36125 26.65 -28.0625 27.5 C-31.99967959 32.58023173 -31.49141584 38.81342565 -31 45 C-29.81588033 49.67553135 -27.34735372 53.5541947 -24 57 C-17.35053796 60.28936154 -8.01184643 61.09993913 -0.8125 59.25 C3.06413317 57.52705192 4.44091107 56.34839095 6.0625 52.4375 C6.371875 51.633125 6.68125 50.82875 7 50 C8.33333333 48.66666667 9.66666667 47.33333333 11 46 C11.32057837 43.2730786 11.32057837 43.2730786 11.25 40.1875 C11.25515625 39.14980469 11.2603125 38.11210938 11.265625 37.04296875 C10.99365807 33.92734763 10.48124042 31.75016971 9 29 C8.01 28.67 7.02 28.34 6 28 C4.62131719 26.37064759 3.28725907 24.70250393 2 23 C1.34 22.34 0.68 21.68 0 21 C-0.33 20.34 -0.66 19.68 -1 19 C-4.42991538 17.85669487 -7.1986416 17.79618349 -10.8125 17.75 C-12.01519531 17.72421875 -13.21789062 17.6984375 -14.45703125 17.671875 C-18.32379424 18.02998756 -20.70374721 18.98589621 -24 21 Z M25 23 C26 25 26 25 26 25 Z M26 25 C27 27 27 27 27 27 Z M27 28 C28 32 28 32 28 32 Z M-51 32 C-50 35 -50 35 -50 35 Z M28 32 C28 36.95 28 41.9 28 47 C28.33 47 28.66 47 29 47 C29 42.05 29 37.1 29 32 C28.67 32 28.34 32 28 32 Z M-33 35 C-33 38.3 -33 41.6 -33 45 C-32.67 45 -32.34 45 -32 45 C-32 41.7 -32 38.4 -32 35 C-32.33 35 -32.66 35 -33 35 Z M-51 44 C-50 48 -50 48 -50 48 Z M27 48 C28 52 28 52 28 52 Z M-50 50 C-49 52 -49 52 -49 52 Z M26 52 C27 55 27 55 27 55 Z M25 55 C26 57 26 57 26 57 Z M-14 61 C-14 61.33 -14 61.66 -14 62 C-12.02 62 -10.04 62 -8 62 C-8 61.67 -8 61.34 -8 61 C-9.98 61 -11.96 61 -14 61 Z " fill="#0B76BD" transform="translate(328,24)"/>
<path d="M0 0 C5.89924544 -0.82589436 10.02648087 0.59094292 15.3125 3.1875 C15.92303223 3.47890869 16.53356445 3.77031738 17.16259766 4.07055664 C22.31353881 6.7287618 24.20781163 9.6234349 26 15 C22.04 18.96 18.08 22.92 14 27 C11.525 26.01 11.525 26.01 9 25 C8.505 23.515 8.505 23.515 8 22 C4.01413037 19.7937991 0.36695023 19.7309259 -4.125 19.75 C-5.95417969 19.74226563 -5.95417969 19.74226563 -7.8203125 19.734375 C-11.15636008 19.75503973 -11.15636008 19.75503973 -14 22 C-14.33 22.66 -14.66 23.32 -15 24 C-15.66 24 -16.32 24 -17 24 C-17 24.66 -17 25.32 -17 26 C-17.63292969 26.2371875 -18.26585937 26.474375 -18.91796875 26.71875 C-21.15391172 27.81780244 -21.15391172 27.81780244 -21.86328125 30.03125 C-23.39818146 38.46652765 -23.80481546 46.52584262 -19 54 C-16.55623917 57.14197821 -14.1713433 58.80582986 -10.2578125 59.74609375 C-2.24264448 60.64745348 4.6437279 60.01810955 11 55 C14.20991023 56.06997008 14.78302285 56.6548467 16.8125 59.1875 C19.69181994 62.6802089 22.76157131 65.83867676 26 69 C24.73542724 72.79371827 23.30055507 73.79962995 20 76 C18.00577205 76.36628677 16.00546689 76.70131344 14 77 C13.401875 77.495 12.80375 77.99 12.1875 78.5 C5.80634956 82.87564601 -6.48628563 81.53154574 -14 81 C-15.485 80.01 -15.485 80.01 -17 79 C-18.32567199 78.31822584 -19.65753688 77.64808564 -21 77 C-21 77.66 -21 78.32 -21 79 C-29.45469196 76.21240229 -36.93846631 68.5000884 -41.2734375 60.828125 C-42.33479838 58.15760407 -42.35284147 55.82273175 -42 53 C-42.66 53 -43.32 53 -44 53 C-45.01629322 48.78035054 -45.16598183 44.77126004 -45.1875 40.4375 C-45.20167969 39.13683594 -45.21585938 37.83617187 -45.23046875 36.49609375 C-45.01757673 33.26663 -44.7035638 31.66808153 -43 29 C-41.79117904 26.99983534 -41.79117904 26.99983534 -41 25 C-41.33 24.01 -41.66 23.02 -42 22 C-40.48828125 19.3359375 -40.48828125 19.3359375 -38.3125 16.375 C-37.60738281 15.39273438 -36.90226563 14.41046875 -36.17578125 13.3984375 C-33.86319091 10.8491907 -33.16313081 10.70587761 -30 10 C-29.31044731 8.67835734 -28.64572323 7.34360103 -28 6 C-26.046875 4.48046875 -26.046875 4.48046875 -23.75 3.1875 C-23.00234375 2.74792969 -22.2546875 2.30835938 -21.484375 1.85546875 C-18.26082287 0.74547203 -16.34120152 1.34921966 -13 2 C-9.87430644 2.1315302 -6.75281088 2.09492547 -3.625 2.0625 C-2.37783203 2.05573242 -2.37783203 2.05573242 -1.10546875 2.04882812 C0.92971897 2.03713164 2.96486923 2.01919935 5 2 C2.525 1.505 2.525 1.505 0 1 C0 0.67 0 0.34 0 0 Z M-23 28 C-22 30 -22 30 -22 30 Z M-24 30 C-23 32 -23 32 -23 32 Z M-25 32 C-24 36 -24 36 -24 36 Z M-44 37 C-44 39.31 -44 41.62 -44 44 C-43.67 44 -43.34 44 -43 44 C-43 41.69 -43 39.38 -43 37 C-43.33 37 -43.66 37 -44 37 Z M-25 45 C-24 49 -24 49 -24 49 Z M-24 50 C-23.67 50.99 -23.34 51.98 -23 53 C-23 52.01 -23 51.02 -23 50 C-23.33 50 -23.66 50 -24 50 Z M-41 56 C-40 58 -40 58 -40 58 Z M-40 58 C-39 60 -39 60 -39 60 Z M-7 62 C-7 62.33 -7 62.66 -7 63 C-4.69 63 -2.38 63 0 63 C0 62.67 0 62.34 0 62 C-2.31 62 -4.62 62 -7 62 Z " fill="#00ACED" transform="translate(571,23)"/>
<path d="M0 0 C2.8125 1.125 2.8125 1.125 4.125 3.375 C4.76898363 5.95093452 5.36383459 8.50778513 5.8125 11.125 C6.781875 11.434375 7.75125 11.74375 8.75 12.0625 C11.8125 13.125 11.8125 13.125 12.8125 14.125 C13.84375 13.96 14.875 13.795 15.9375 13.625 C19.95008877 13.10724661 22.88872609 13.16256489 26.8125 14.125 C29.73067314 16.41221678 31.44952895 18.69618046 32.8125 22.125 C32.7890625 24.703125 32.7890625 24.703125 32.4375 27.375 C32.32664062 28.26703125 32.21578125 29.1590625 32.1015625 30.078125 C32.00617188 30.75359375 31.91078125 31.4290625 31.8125 32.125 C30.1625 32.785 28.5125 33.445 26.8125 34.125 C26.8125 35.445 26.8125 36.765 26.8125 38.125 C24.4375 39.9375 24.4375 39.9375 21.8125 41.125 C20.8225 40.63 20.8225 40.63 19.8125 40.125 C19.8125 42.435 19.8125 44.745 19.8125 47.125 C20.740625 47.4653125 20.740625 47.4653125 21.6875 47.8125 C24.42660209 49.50429835 24.86274472 51.11744161 25.8125 54.125 C26.4725 53.795 27.1325 53.465 27.8125 53.125 C27 56.0625 27 56.0625 25.8125 59.125 C24.3275 59.62 24.3275 59.62 22.8125 60.125 C22.8125 60.785 22.8125 61.445 22.8125 62.125 C19.71201072 63.67524464 17.23355782 63.41492015 13.8125 63.125 C11.05920979 61.32937595 9.28622539 60.07245078 7.8125 57.125 C7.4124866 53.44487667 7.30220103 51.7760711 9.625 48.8125 C11.8125 47.125 11.8125 47.125 14.8125 46.125 C14.8125 44.475 14.8125 42.825 14.8125 41.125 C14.02875 40.8775 13.245 40.63 12.4375 40.375 C9.34370098 38.90176237 9.24695464 38.08356269 7.8125 35.125 C-0.07770439 29.84415056 -0.07770439 29.84415056 -24.1875 31.125 C-24.1875 51.255 -24.1875 71.385 -24.1875 92.125 C-28.1875 93.125 -28.1875 93.125 -30.37109375 91.8671875 C-31.11488281 91.25101562 -31.85867188 90.63484375 -32.625 90 C-33.40746094 89.35417969 -34.18992187 88.70835938 -34.99609375 88.04296875 C-41.63282488 82.23435024 -41.63282488 82.23435024 -43.1875 79.125 C-43.25020723 77.06132391 -43.24509503 74.99546938 -43.20922852 72.93115234 C-43.18913223 71.62995453 -43.16903595 70.32875671 -43.14833069 68.98812866 C-43.12113216 67.56239618 -43.09382135 66.13666583 -43.06640625 64.7109375 C-43.04210795 63.25648733 -43.01826424 61.8020295 -42.99485779 60.3475647 C-42.93198794 56.51700117 -42.86292958 52.68657304 -42.79260254 48.85614014 C-42.7095252 44.26153464 -42.63409814 39.66679802 -42.55739594 35.07208252 C-42.43997306 28.08960332 -42.31280468 21.10736226 -42.1875 14.125 C-24.8625 13.63 -24.8625 13.63 -7.1875 13.125 C-7.6825 12.135 -7.6825 12.135 -8.1875 11.125 C-8.73034928 7.0536304 -8.50639873 5.5658306 -6.0625 2.1875 C-3.1875 0.125 -3.1875 0.125 0 0 Z M-7.1875 6.125 C-6.1875 10.125 -6.1875 10.125 -6.1875 10.125 Z M-6.1875 10.125 C-5.1875 12.125 -5.1875 12.125 -5.1875 12.125 Z M-3.1875 13.125 C0.8125 14.125 0.8125 14.125 0.8125 14.125 Z M-4.1875 15.125 C-4.1875 15.455 -4.1875 15.785 -4.1875 16.125 C-2.5375 16.125 -0.8875 16.125 0.8125 16.125 C0.8125 15.795 0.8125 15.465 0.8125 15.125 C-0.8375 15.125 -2.4875 15.125 -4.1875 15.125 Z M2.8125 21.125 C3.8125 23.125 3.8125 23.125 3.8125 23.125 Z M14.0625 22.375 C12.54774913 24.06985784 12.54774913 24.06985784 13.125 26.3125 C13.351875 26.910625 13.57875 27.50875 13.8125 28.125 C14.039375 27.485625 14.26625 26.84625 14.5 26.1875 C15.8125 24.125 15.8125 24.125 18.4375 23.375 C19.22125 23.2925 20.005 23.21 20.8125 23.125 C20.1525 22.465 19.4925 21.805 18.8125 21.125 C15.86093652 20.8343809 15.86093652 20.8343809 14.0625 22.375 Z M8.8125 23.125 C9.8125 25.125 9.8125 25.125 9.8125 25.125 Z M25.8125 24.125 C26.8125 27.125 26.8125 27.125 26.8125 27.125 Z M1.8125 25.125 C2.8125 28.125 2.8125 28.125 2.8125 28.125 Z M8.8125 27.125 C9.8125 29.125 9.8125 29.125 9.8125 29.125 Z M4.8125 30.125 C5.8125 32.125 5.8125 32.125 5.8125 32.125 Z M10.8125 31.125 C11.1425 32.115 11.4725 33.105 11.8125 34.125 C12.4725 33.795 13.1325 33.465 13.8125 33.125 C12.8225 32.465 11.8325 31.805 10.8125 31.125 Z M18.8125 33.125 C17.1625 33.455 15.5125 33.785 13.8125 34.125 C13.8125 34.455 13.8125 34.785 13.8125 35.125 C15.7925 35.125 17.7725 35.125 19.8125 35.125 C19.4825 34.465 19.1525 33.805 18.8125 33.125 Z M24.8125 34.125 C25.8125 36.125 25.8125 36.125 25.8125 36.125 Z M19.8125 35.125 C20.8125 37.125 20.8125 37.125 20.8125 37.125 Z M8.8125 52.125 C9.8125 56.125 9.8125 56.125 9.8125 56.125 Z M13.8125 52.125 C14.8125 56.125 14.8125 56.125 14.8125 56.125 Z M16.8125 52.125 C16.4825 53.115 16.1525 54.105 15.8125 55.125 C17.1325 55.125 18.4525 55.125 19.8125 55.125 C19.4825 54.135 19.1525 53.145 18.8125 52.125 C18.1525 52.125 17.4925 52.125 16.8125 52.125 Z M20.8125 52.125 C21.8125 55.125 21.8125 55.125 21.8125 55.125 Z M9.8125 56.125 C10.8125 58.125 10.8125 58.125 10.8125 58.125 Z " fill="#008DD1" transform="translate(458.1875,10.875)"/>
<path d="M0 0 C4.7368984 1.63341324 7.7669576 5.65486284 11.0625 9.25 C12.79826984 11.120598 12.79826984 11.120598 14.7890625 11.34765625 C17.92382303 12.27257676 19.82478608 14.08684199 22.3125 16.1875 C23.27542969 16.99832031 24.23835938 17.80914062 25.23046875 18.64453125 C26.14441406 19.42183594 27.05835938 20.19914062 28 21 C28.73863281 21.60199219 29.47726562 22.20398438 30.23828125 22.82421875 C34.87975285 26.63925856 34.87975285 26.63925856 36 30 C36.763125 30.0825 37.52625 30.165 38.3125 30.25 C41.58573555 31.16346108 42.2478717 32.16322085 44 35 C44.66 35.99 45.32 36.98 46 38 C46.19508742 40.89475298 46.27879733 43.67076811 46.25 46.5625 C46.26160156 47.73329102 46.26160156 47.73329102 46.2734375 48.92773438 C46.25335498 54.74664502 46.25335498 54.74664502 44 57 C42.68412059 55.87895467 41.37239647 54.75303035 40.0625 53.625 C39.33160156 52.99851563 38.60070312 52.37203125 37.84765625 51.7265625 C36 50 36 50 35 48 C33.6078125 47.38125 33.6078125 47.38125 32.1875 46.75 C28.45425497 44.70037528 27.23830437 42.55041383 25 39 C23.515 38.505 23.515 38.505 22 38 C20.515 37.505 20.515 37.505 19 37 C18.67 50.53 18.34 64.06 18 78 C17.34 78 16.68 78 16 78 C16 62.82 16 47.64 16 32 C15.67 47.51 15.34 63.02 15 79 C9.39 79 3.78 79 -2 79 C-2 53.26 -2 27.52 -2 1 C-1.34 0.67 -0.68 0.34 0 0 Z " fill="#027BC3" transform="translate(361,24)"/>
<path d="M0 0 C0.721875 0.103125 1.44375 0.20625 2.1875 0.3125 C2.455625 0.93125 2.72375 1.55 3 2.1875 C4.14306848 4.6120233 4.14306848 4.6120233 7.1875 6.3125 C7.5175 5.9825 7.8475 5.6525 8.1875 5.3125 C11.25231021 5.1511942 13.24299278 5.33099759 16.1875 6.3125 C18.52422984 6.0038753 20.85743089 5.66793427 23.1875 5.3125 C26.64072174 5.17968378 28.90087966 5.21695989 32.1875 6.3125 C33.52821235 6.01020995 34.86116661 5.67267861 36.1875 5.3125 C37.87138417 5.17417144 39.56072032 5.0930752 41.25 5.0625 C42.10722656 5.03671875 42.96445312 5.0109375 43.84765625 4.984375 C46.62608273 5.37400409 47.46207227 6.16278677 49.1875 8.3125 C49.579375 7.796875 49.97125 7.28125 50.375 6.75 C52.1875 5.3125 52.1875 5.3125 54.8125 5.5625 C57.1875 6.3125 57.1875 6.3125 58.1875 7.3125 C58.8475 7.3125 59.5075 7.3125 60.1875 7.3125 C60.5175 6.6525 60.8475 5.9925 61.1875 5.3125 C61.1875 6.3025 61.1875 7.2925 61.1875 8.3125 C61.8475 7.3225 62.5075 6.3325 63.1875 5.3125 C64.1775 5.6425 65.1675 5.9725 66.1875 6.3125 C66.5175 6.3125 66.8475 6.3125 67.1875 6.3125 C67.5175 5.9825 67.8475 5.6525 68.1875 5.3125 C70.52496522 5.61550475 72.85835177 5.95108045 75.1875 6.3125 C78.14134291 6.43097809 78.14134291 6.43097809 80.75 5.6875 C81.554375 5.56375 82.35875 5.44 83.1875 5.3125 C86.64201659 8.76701659 87.1875 10.61495709 87.1875 15.3125 C88.1775 16.7975 88.1775 16.7975 89.1875 18.3125 C86.95342111 21.66361834 85.92534176 23.12803956 81.9375 24.125 C81.03 24.186875 80.1225 24.24875 79.1875 24.3125 C78.1975 22.8275 78.1975 22.8275 77.1875 21.3125 C74.1129644 22.0888932 74.1129644 22.0888932 72.1875 24.3125 C68.80452587 24.13444873 67.42477939 23.52412756 64.875 21.25 C64.318125 20.610625 63.76125 19.97125 63.1875 19.3125 C62.8575 19.9725 62.5275 20.6325 62.1875 21.3125 C60.5375 21.3125 58.8875 21.3125 57.1875 21.3125 C57.1875 21.9725 57.1875 22.6325 57.1875 23.3125 C55.5375 23.6425 53.8875 23.9725 52.1875 24.3125 C51.6925 22.8275 51.6925 22.8275 51.1875 21.3125 C49.2075 21.3125 47.2275 21.3125 45.1875 21.3125 C45.1875 17.6825 45.1875 14.0525 45.1875 10.3125 C44.5275 10.6425 43.8675 10.9725 43.1875 11.3125 C42.71998212 13.66849235 42.71998212 13.66849235 42.5625 16.375 C42.376875 18.8190625 42.376875 18.8190625 42.1875 21.3125 C35.5875 21.3125 28.9875 21.3125 22.1875 21.3125 C22.1875 17.6825 22.1875 14.0525 22.1875 10.3125 C21.1975 10.8075 21.1975 10.8075 20.1875 11.3125 C19.71998212 13.66849235 19.71998212 13.66849235 19.5625 16.375 C19.48773437 17.29410156 19.41296875 18.21320313 19.3359375 19.16015625 C19.28695312 19.87042969 19.23796875 20.58070313 19.1875 21.3125 C18.56875 21.126875 17.95 20.94125 17.3125 20.75 C15.14589822 20.07563824 15.14589822 20.07563824 13.1875 21.3125 C13.5175 21.9725 13.8475 22.6325 14.1875 23.3125 C10.63456507 24.46197895 9.38773331 24.3993937 5.875 22.875 C4.988125 22.359375 4.10125 21.84375 3.1875 21.3125 C3.1875 21.9725 3.1875 22.6325 3.1875 23.3125 C1.2075 23.6425 -0.7725 23.9725 -2.8125 24.3125 C-3.1425 23.3225 -3.4725 22.3325 -3.8125 21.3125 C-5.82758358 20.57926204 -5.82758358 20.57926204 -7.8125 20.3125 C-7.94822155 17.91475255 -8.04686868 15.52474755 -8.125 13.125 C-8.16689453 12.45146484 -8.20878906 11.77792969 -8.25195312 11.08398438 C-8.34863142 7.12017424 -7.95358075 5.49120228 -5.46875 2.34375 C-2.8125 0.3125 -2.8125 0.3125 0 0 Z M-6.8125 5.3125 C-6.8125 9.9325 -6.8125 14.5525 -6.8125 19.3125 C-6.4825 19.3125 -6.1525 19.3125 -5.8125 19.3125 C-5.8125 14.6925 -5.8125 10.0725 -5.8125 5.3125 C-6.1425 5.3125 -6.4725 5.3125 -6.8125 5.3125 Z M-1.8125 5.3125 C-1.1525 5.9725 -0.4925 6.6325 0.1875 7.3125 C0.1875 6.6525 0.1875 5.9925 0.1875 5.3125 C-0.4725 5.3125 -1.1325 5.3125 -1.8125 5.3125 Z M1.1875 6.3125 C1.1875 6.9725 1.1875 7.6325 1.1875 8.3125 C0.5275 8.3125 -0.1325 8.3125 -0.8125 8.3125 C-0.8125 10.9525 -0.8125 13.5925 -0.8125 16.3125 C0.1775 16.6425 1.1675 16.9725 2.1875 17.3125 C2.331875 16.735 2.47625 16.1575 2.625 15.5625 C3.14583333 13.47916667 3.66666667 11.39583333 4.1875 9.3125 C3.5275 9.3125 2.8675 9.3125 2.1875 9.3125 C1.8575 8.3225 1.5275 7.3325 1.1875 6.3125 Z M-2.8125 8.3125 C-2.8125 11.6125 -2.8125 14.9125 -2.8125 18.3125 C-2.4825 18.3125 -2.1525 18.3125 -1.8125 18.3125 C-1.8125 15.0125 -1.8125 11.7125 -1.8125 8.3125 C-2.1425 8.3125 -2.4725 8.3125 -2.8125 8.3125 Z M9.1875 10.3125 C9.1875 12.9525 9.1875 15.5925 9.1875 18.3125 C9.5175 18.3125 9.8475 18.3125 10.1875 18.3125 C10.5175 15.6725 10.8475 13.0325 11.1875 10.3125 C10.5275 10.3125 9.8675 10.3125 9.1875 10.3125 Z M53.1875 10.3125 C52.8575 11.3025 52.5275 12.2925 52.1875 13.3125 C53.5075 13.3125 54.8275 13.3125 56.1875 13.3125 C55.8575 12.3225 55.5275 11.3325 55.1875 10.3125 C54.5275 10.3125 53.8675 10.3125 53.1875 10.3125 Z M80.1875 10.3125 C79.8575 11.3025 79.5275 12.2925 79.1875 13.3125 C80.5075 13.3125 81.8275 13.3125 83.1875 13.3125 C82.8575 12.3225 82.5275 11.3325 82.1875 10.3125 C81.5275 10.3125 80.8675 10.3125 80.1875 10.3125 Z M11.1875 11.3125 C11.1875 13.6225 11.1875 15.9325 11.1875 18.3125 C11.5175 18.3125 11.8475 18.3125 12.1875 18.3125 C12.1875 16.0025 12.1875 13.6925 12.1875 11.3125 C11.8575 11.3125 11.5275 11.3125 11.1875 11.3125 Z M65.1875 11.3125 C65.1875 13.9525 65.1875 16.5925 65.1875 19.3125 C65.5175 19.3125 65.8475 19.3125 66.1875 19.3125 C66.1875 16.6725 66.1875 14.0325 66.1875 11.3125 C65.8575 11.3125 65.5275 11.3125 65.1875 11.3125 Z M69.1875 11.3125 C69.1875 13.6225 69.1875 15.9325 69.1875 18.3125 C69.5175 18.3125 69.8475 18.3125 70.1875 18.3125 C70.1875 16.0025 70.1875 13.6925 70.1875 11.3125 C69.8575 11.3125 69.5275 11.3125 69.1875 11.3125 Z M71.1875 13.3125 C72.1875 16.3125 72.1875 16.3125 72.1875 16.3125 Z M73.1875 13.3125 C74.1775 13.8075 74.1775 13.8075 75.1875 14.3125 C75.5175 14.9725 75.8475 15.6325 76.1875 16.3125 C76.1875 15.3225 76.1875 14.3325 76.1875 13.3125 C75.1975 13.3125 74.2075 13.3125 73.1875 13.3125 Z M52.1875 16.3125 C53.1875 18.3125 53.1875 18.3125 53.1875 18.3125 Z M55.1875 16.3125 C56.1875 18.3125 56.1875 18.3125 56.1875 18.3125 Z M82.1875 16.3125 C83.1875 18.3125 83.1875 18.3125 83.1875 18.3125 Z M86.1875 16.3125 C87.1875 18.3125 87.1875 18.3125 87.1875 18.3125 Z M75.1875 18.3125 C75.8475 18.9725 76.5075 19.6325 77.1875 20.3125 C77.1875 19.6525 77.1875 18.9925 77.1875 18.3125 C76.5275 18.3125 75.8675 18.3125 75.1875 18.3125 Z " fill="#585858" transform="translate(507.8125,110.6875)"/>
<path d="M0 0 C3.08907449 2.18495513 4.59343959 4.52387494 6 8 C5.9765625 10.578125 5.9765625 10.578125 5.625 13.25 C5.45871094 14.58804688 5.45871094 14.58804688 5.2890625 15.953125 C5.14597656 16.96632813 5.14597656 16.96632813 5 18 C3.35 18.66 1.7 19.32 0 20 C0 21.32 0 22.64 0 24 C-2.375 25.8125 -2.375 25.8125 -5 27 C-5.66 26.67 -6.32 26.34 -7 26 C-7 28.31 -7 30.62 -7 33 C-6.38125 33.226875 -5.7625 33.45375 -5.125 33.6875 C-2.38589791 35.37929835 -1.94975528 36.99244161 -1 40 C-0.01 39.505 -0.01 39.505 1 39 C0.1875 41.9375 0.1875 41.9375 -1 45 C-2.485 45.495 -2.485 45.495 -4 46 C-4 46.66 -4 47.32 -4 48 C-7.10048928 49.55024464 -9.57894218 49.28992015 -13 49 C-15.75329021 47.20437595 -17.52627461 45.94745078 -19 43 C-19.4000134 39.31987667 -19.51029897 37.6510711 -17.1875 34.6875 C-15 33 -15 33 -12 32 C-12 30.35 -12 28.7 -12 27 C-12.78375 26.7525 -13.5675 26.505 -14.375 26.25 C-17.46879902 24.77676237 -17.56554536 23.95856269 -19 21 C-19.86625 20.608125 -20.7325 20.21625 -21.625 19.8125 C-24 18 -24 18 -24.39453125 16.0234375 C-24.4789617 11.43349135 -24.11726993 7.13371747 -22 3 C-19.75 1.75 -19.75 1.75 -17 1 C-16.13375 0.608125 -15.2675 0.21625 -14.375 -0.1875 C-9.46132766 -1.37042112 -4.92759401 -1.07188665 0 0 Z M-12.75 8.25 C-14.26475087 9.94485784 -14.26475087 9.94485784 -13.6875 12.1875 C-13.460625 12.785625 -13.23375 13.38375 -13 14 C-12.773125 13.360625 -12.54625 12.72125 -12.3125 12.0625 C-11 10 -11 10 -8.375 9.25 C-7.59125 9.1675 -6.8075 9.085 -6 9 C-6.66 8.34 -7.32 7.68 -8 7 C-10.95156348 6.7093809 -10.95156348 6.7093809 -12.75 8.25 Z M-18 9 C-17 11 -17 11 -17 11 Z M-1 10 C0 13 0 13 0 13 Z M-18 13 C-17 15 -17 15 -17 15 Z M-22 16 C-21 18 -21 18 -21 18 Z M-16 17 C-15.67 17.99 -15.34 18.98 -15 20 C-14.34 19.67 -13.68 19.34 -13 19 C-13.99 18.34 -14.98 17.68 -16 17 Z M-8 19 C-9.65 19.33 -11.3 19.66 -13 20 C-13 20.33 -13 20.66 -13 21 C-11.02 21 -9.04 21 -7 21 C-7.33 20.34 -7.66 19.68 -8 19 Z M-2 20 C-1 22 -1 22 -1 22 Z M-7 21 C-6 23 -6 23 -6 23 Z M-18 38 C-17 42 -17 42 -17 42 Z M-13 38 C-12 42 -12 42 -12 42 Z M-10 38 C-10.33 38.99 -10.66 39.98 -11 41 C-9.68 41 -8.36 41 -7 41 C-7.33 40.01 -7.66 39.02 -8 38 C-8.66 38 -9.32 38 -10 38 Z M-6 38 C-5 41 -5 41 -5 41 Z M-17 42 C-16 44 -16 44 -16 44 Z " fill="#E6A04F" transform="translate(485,25)"/>
<path d="M0 0 C3.3125 0.25 3.3125 0.25 7 1 C8.00642948 2.32848691 9.00692179 3.66150329 10 5 C11.99952758 5.04346799 14.00039988 5.039992 16 5 C18.875 6.5 18.875 6.5 21 8 C21.33 7.01 21.66 6.02 22 5 C23.2065625 5.2475 23.2065625 5.2475 24.4375 5.5 C27.39307347 6.08309313 27.39307347 6.08309313 30.25 5.4375 C33.19682128 4.96868752 35.15720595 5.13136849 38 6 C38.495 6.99 38.495 6.99 39 8 C39.66 8.33 40.32 8.66 41 9 C40.67 12.96 40.34 16.92 40 21 C35.84960938 20.85351562 35.84960938 20.85351562 31.69921875 20.70703125 C28.57870367 21.04572681 28.00111021 21.72162753 26 24 C22.602552 23.73865785 19.95905318 22.64391844 17 21 C17 21.66 17 22.32 17 23 C16.34 23 15.68 23 15 23 C15 23.66 15 24.32 15 25 C14.34 25 13.68 25 13 25 C12.67 23.68 12.34 22.36 12 21 C12 23.31 12 25.62 12 28 C9 27 9 27 7 26 C6.67 25.01 6.34 24.02 6 23 C5.21625 23.20625 4.4325 23.4125 3.625 23.625 C2.75875 23.74875 1.8925 23.8725 1 24 C0.34 23.34 -0.32 22.68 -1 22 C-1.680625 21.67 -2.36125 21.34 -3.0625 21 C-5 20 -5 20 -6 18 C-6.14716542 16.19156337 -6.2210887 14.37668434 -6.25 12.5625 C-6.27578125 11.59441406 -6.3015625 10.62632813 -6.328125 9.62890625 C-5.94812681 6.58439694 -5.35129608 5.86619859 -3 4 C-0.94729537 2.15811388 -0.94729537 2.15811388 0 0 Z M-4 6 C-4 9.96 -4 13.92 -4 18 C-3.67 18 -3.34 18 -3 18 C-3 14.04 -3 10.08 -3 6 C-3.33 6 -3.66 6 -4 6 Z M0 6 C0 9.96 0 13.92 0 18 C0.33 18 0.66 18 1 18 C1 14.04 1 10.08 1 6 C0.67 6 0.34 6 0 6 Z M4 6 C4 6.66 4 7.32 4 8 C3.34 8 2.68 8 2 8 C2 10.64 2 13.28 2 16 C2.99 16.33 3.98 16.66 5 17 C5 13.37 5 9.74 5 6 C4.67 6 4.34 6 4 6 Z M8 6 C8 10.95 8 15.9 8 21 C8.33 21 8.66 21 9 21 C9 16.05 9 11.1 9 6 C8.67 6 8.34 6 8 6 Z M23 10 C22.67 10.99 22.34 11.98 22 13 C23.32 13 24.64 13 26 13 C25.67 12.01 25.34 11.02 25 10 C24.34 10 23.68 10 23 10 Z M12 11 C12 13.31 12 15.62 12 18 C12.33 18 12.66 18 13 18 C13 15.69 13 13.38 13 11 C12.67 11 12.34 11 12 11 Z M15 11 C15 12.98 15 14.96 15 17 C15.33 17 15.66 17 16 17 C16 15.02 16 13.04 16 11 C15.67 11 15.34 11 15 11 Z M19 13 C20 15 20 15 20 15 Z M22 16 C23 18 23 18 23 18 Z M25 16 C26 18 26 18 26 18 Z " fill="#575757" transform="translate(289,111)"/>
<path d="M0 0 C1.60332791 -0.08121924 3.20784026 -0.13929134 4.8125 -0.1875 C6.15248047 -0.23970703 6.15248047 -0.23970703 7.51953125 -0.29296875 C10.41647515 0.04918998 11.22555028 0.75393573 13 3 C13.391875 2.484375 13.78375 1.96875 14.1875 1.4375 C16 0 16 0 18.625 0.25 C21 1 21 1 22 2 C22.66 2 23.32 2 24 2 C24.33 1.34 24.66 0.68 25 0 C25 0.99 25 1.98 25 3 C25.66 2.01 26.32 1.02 27 0 C27.99 0.33 28.98 0.66 30 1 C30.33 1 30.66 1 31 1 C31.33 0.67 31.66 0.34 32 0 C34.33746522 0.30300475 36.67085177 0.63858045 39 1 C41.95384291 1.11847809 41.95384291 1.11847809 44.5625 0.375 C45.7690625 0.189375 45.7690625 0.189375 47 0 C50.45451659 3.45451659 51 5.30245709 51 10 C51.66 10.99 52.32 11.98 53 13 C50.76592111 16.35111834 49.73784176 17.81553956 45.75 18.8125 C44.8425 18.874375 43.935 18.93625 43 19 C42.34 18.01 41.68 17.02 41 16 C37.9254644 16.7763932 37.9254644 16.7763932 36 19 C32.61702587 18.82194873 31.23727939 18.21162756 28.6875 15.9375 C28.130625 15.298125 27.57375 14.65875 27 14 C26.67 14.66 26.34 15.32 26 16 C24.35 16 22.7 16 21 16 C21 16.66 21 17.32 21 18 C19.35 18.33 17.7 18.66 16 19 C15.67 18.01 15.34 17.02 15 16 C13.02 16 11.04 16 9 16 C9 12.37 9 8.74 9 5 C8.34 5 7.68 5 7 5 C7 4.01 7 3.02 7 2 C5.35 2.33 3.7 2.66 2 3 C2 2.34 2 1.68 2 1 C1.34 0.67 0.68 0.34 0 0 Z M17 5 C16.67 5.99 16.34 6.98 16 8 C17.32 8 18.64 8 20 8 C19.67 7.01 19.34 6.02 19 5 C18.34 5 17.68 5 17 5 Z M44 5 C43.67 5.99 43.34 6.98 43 8 C44.32 8 45.64 8 47 8 C46.67 7.01 46.34 6.02 46 5 C45.34 5 44.68 5 44 5 Z M29 6 C29 8.64 29 11.28 29 14 C29.33 14 29.66 14 30 14 C30 11.36 30 8.72 30 6 C29.67 6 29.34 6 29 6 Z M33 6 C33 8.31 33 10.62 33 13 C33.33 13 33.66 13 34 13 C34 10.69 34 8.38 34 6 C33.67 6 33.34 6 33 6 Z M35 8 C36 11 36 11 36 11 Z M37 8 C37.99 8.495 37.99 8.495 39 9 C39.33 9.66 39.66 10.32 40 11 C40 10.01 40 9.02 40 8 C39.01 8 38.02 8 37 8 Z M16 11 C17 13 17 13 17 13 Z M19 11 C20 13 20 13 20 13 Z M46 11 C47 13 47 13 47 13 Z M50 11 C51 13 51 13 51 13 Z M39 13 C39.66 13.66 40.32 14.32 41 15 C41 14.34 41 13.68 41 13 C40.34 13 39.68 13 39 13 Z " fill="#5D5D5D" transform="translate(544,116)"/>
<path d="M0 0 C0.66 0 1.32 0 2 0 C3 1 4 2 5 3 C7.82741695 4.63001196 7.82741695 4.63001196 11 5 C11.99 4.34 12.98 3.68 14 3 C14.99 5.31 15.98 7.62 17 10 C17.99 7.69 18.98 5.38 20 3 C20.99 3.33 21.98 3.66 23 4 C23.33 3.67 23.66 3.34 24 3 C25.66617115 2.95936168 27.33388095 2.957279 29 3 C31.1891584 6.54102912 31.29855877 9.50768873 31.3125 13.625 C31.32925781 14.77226563 31.34601563 15.91953125 31.36328125 17.1015625 C31.24339844 18.05804688 31.12351562 19.01453125 31 20 C28 22 28 22 25.375 21.75 C24.59125 21.5025 23.8075 21.255 23 21 C22.505 20.01 22.505 20.01 22 19 C21.34 18.67 20.68 18.34 20 18 C20.33 15.69 20.66 13.38 21 11 C20.01 13.64 19.02 16.28 18 19 C14.04 19 10.08 19 6 19 C5.67 19.66 5.34 20.32 5 21 C3.35 20.67 1.7 20.34 0 20 C0 16.37 0 12.74 0 9 C-0.66 9 -1.32 9 -2 9 C-1.67 11.97 -1.34 14.94 -1 18 C-1.99 18.33 -2.98 18.66 -4 19 C-4 19.66 -4 20.32 -4 21 C-6.3125 21.625 -6.3125 21.625 -9 22 C-9.99 21.34 -10.98 20.68 -12 20 C-12.34057617 18.02880859 -12.34057617 18.02880859 -12.29296875 15.6484375 C-12.28330078 14.79765625 -12.27363281 13.946875 -12.26367188 13.0703125 C-12.23853516 12.18085937 -12.21339844 11.29140625 -12.1875 10.375 C-12.17396484 9.4778125 -12.16042969 8.580625 -12.14648438 7.65625 C-12.11106925 5.43690211 -12.06168461 3.21874812 -12 1 C-11.34 1.66 -10.68 2.32 -10 3 C-9.236875 3 -8.47375 3 -7.6875 3 C-4.67448919 3 -2.71760979 3.75766409 0 5 C-0.2784375 4.0409375 -0.2784375 4.0409375 -0.5625 3.0625 C-0.706875 2.381875 -0.85125 1.70125 -1 1 C-0.67 0.67 -0.34 0.34 0 0 Z M11 6 C11 6.66 11 7.32 11 8 C10.34 8 9.68 8 9 8 C9.33 9.32 9.66 10.64 10 12 C10.66 11.01 11.32 10.02 12 9 C11.67 8.01 11.34 7.02 11 6 Z M-8 8 C-8.33 8.99 -8.66 9.98 -9 11 C-8.01 11 -7.02 11 -6 11 C-6 10.01 -6 9.02 -6 8 C-6.66 8 -7.32 8 -8 8 Z M27 9 C27 11.31 27 13.62 27 16 C27.33 16 27.66 16 28 16 C28 13.69 28 11.38 28 9 C27.67 9 27.34 9 27 9 Z M25 11 C26 14 26 14 26 14 Z M4 12 C4 13.32 4 14.64 4 16 C4.66 15.67 5.32 15.34 6 15 C5.34 14.01 4.68 13.02 4 12 Z M-9 14 C-8 16 -8 16 -8 16 Z M7 14 C8 16 8 16 8 16 Z " fill="#5F5F5F" transform="translate(359,113)"/>
<path d="M0 0 C0.66 0 1.32 0 2 0 C3.7143618 1.95927063 5.38405168 3.95880212 7 6 C7.66 5.01 8.32 4.02 9 3 C11.4375 3.375 11.4375 3.375 14 4 C14.495 4.99 14.495 4.99 15 6 C15 4.35 15 2.7 15 1 C15.33 1 15.66 1 16 1 C16.02689449 3.95839355 16.04678741 6.91654427 16.0625 9.875 C16.07087891 10.71675781 16.07925781 11.55851562 16.08789062 12.42578125 C16.09111328 13.23144531 16.09433594 14.03710938 16.09765625 14.8671875 C16.10289307 15.61081543 16.10812988 16.35444336 16.11352539 17.12060547 C16 19 16 19 15 21 C11.9375 21.625 11.9375 21.625 9 22 C8.67 21.01 8.34 20.02 8 19 C6.906875 19.020625 5.81375 19.04125 4.6875 19.0625 C1 19 1 19 -2 18 C-2 15.03 -2 12.06 -2 9 C-2.33 12.3 -2.66 15.6 -3 19 C-3.99 19.33 -4.98 19.66 -6 20 C-5.01 20.33 -4.02 20.66 -3 21 C-8.21407186 25.8502994 -8.21407186 25.8502994 -11.625 26.5 C-14.44497105 25.90632189 -15.93158966 24.99180255 -18 23 C-18 22.34 -18 21.68 -18 21 C-18.99 20.67 -19.98 20.34 -21 20 C-21 15.05 -21 10.1 -21 5 C-16 4 -16 4 -12.3125 3.5625 C-8.93121899 3.31705032 -8.93121899 3.31705032 -7 1 C-6.67 1.99 -6.34 2.98 -6 4 C-4.02463255 3.65213292 -4.02463255 3.65213292 -2 3 C-1.67 2.34 -1.34 1.68 -1 1 C-0.67 0.67 -0.34 0.34 0 0 Z M-18 8 C-17 12 -17 12 -17 12 Z M-13 8 C-13.33 9.32 -13.66 10.64 -14 12 C-12.68 12 -11.36 12 -10 12 C-10.33 10.68 -10.66 9.36 -11 8 C-11.66 8 -12.32 8 -13 8 Z M10 8 C9.67 8.99 9.34 9.98 9 11 C10.32 11 11.64 11 13 11 C12.67 10.01 12.34 9.02 12 8 C11.34 8 10.68 8 10 8 Z M5 10 C6 12 6 12 6 12 Z M-18 14 C-17 16 -17 16 -17 16 Z M5 14 C6 16 6 16 6 16 Z M9 14 C10 16 10 16 10 16 Z M12 14 C13 16 13 16 13 16 Z M-14 16 C-12.35 16 -10.7 16 -9 16 C-8.67 15.34 -8.34 14.68 -8 14 C-10.46278801 14 -11.85224119 14.85452863 -14 16 Z M-17 18 C-16 22 -16 22 -16 22 Z M-14 19 C-13.67 19.66 -13.34 20.32 -13 21 C-12.01 21 -11.02 21 -10 21 C-10.33 20.34 -10.66 19.68 -11 19 C-11.99 19 -12.98 19 -14 19 Z " fill="#5C5C5C" transform="translate(475,113)"/>
<path d="M0 0 C2.97 0 5.94 0 9 0 C9 0.66 9 1.32 9 2 C14.55368222 2.98761044 14.55368222 2.98761044 20 2 C20.66 2 21.32 2 22 2 C22 2.66 22 3.32 22 4 C22.99 4.33 23.98 4.66 25 5 C24.690625 5.680625 24.38125 6.36125 24.0625 7.0625 C22.86629351 10.36965912 22.40994603 13.51545878 22 17 C20.88625 17.103125 19.7725 17.20625 18.625 17.3125 C17.42875 17.539375 16.2325 17.76625 15 18 C14.34 18.99 13.68 19.98 13 21 C10.5625 20.625 10.5625 20.625 8 20 C7.67 19.34 7.34 18.68 7 18 C6.34 18 5.68 18 5 18 C5.33 14.7 5.66 11.4 6 8 C5.34 8 4.68 8 4 8 C4 11.3 4 14.6 4 18 C2.35 18 0.7 18 -1 18 C-1.02690844 15.37493198 -1.04679404 12.75013827 -1.0625 10.125 C-1.07087891 9.37863281 -1.07925781 8.63226563 -1.08789062 7.86328125 C-1.11328125 2.2265625 -1.11328125 2.2265625 0 0 Z M0 2 C1 4 1 4 1 4 Z M9 8 C9 10.31 9 12.62 9 15 C9.33 15 9.66 15 10 15 C10 12.69 10 10.38 10 8 C9.67 8 9.34 8 9 8 Z M12 8 C12 10.31 12 12.62 12 15 C12.33 15 12.66 15 13 15 C13 12.69 13 10.38 13 8 C12.67 8 12.34 8 12 8 Z " fill="#585858" transform="translate(413,114)"/>
<path d="M0 0 C1.875 1.3125 1.875 1.3125 3 3 C3.1875 5.6875 3.1875 5.6875 3 8 C6 9.33333333 6 9.33333333 9 8 C9 9.65 9 11.3 9 13 C7.35 13.66 5.7 14.32 4 15 C4 16.32 4 17.64 4 19 C1.5 20.75 1.5 20.75 -1 22 C-2.20628008 19.66785852 -3.1654738 17.50357861 -4 15 C-5.11375 15.12375 -5.11375 15.12375 -6.25 15.25 C-9 15 -9 15 -11.3125 13.5 C-13.79757512 9.81840722 -13.34963598 7.40541329 -13 3 C-12.67 2.01 -12.34 1.02 -12 0 C-7.35924859 -2.26641348 -4.65029774 -2.17013895 0 0 Z M-8.75 3.25 C-10.26475087 4.94485784 -10.26475087 4.94485784 -9.6875 7.1875 C-9.460625 7.785625 -9.23375 8.38375 -9 9 C-8.773125 8.360625 -8.54625 7.72125 -8.3125 7.0625 C-7 5 -7 5 -4.375 4.25 C-3.59125 4.1675 -2.8075 4.085 -2 4 C-2.66 3.34 -3.32 2.68 -4 2 C-6.95156348 1.7093809 -6.95156348 1.7093809 -8.75 3.25 Z M2 15 C3 17 3 17 3 17 Z " fill="#92969B" transform="translate(481,30)"/>
<path d="M0 0 C6.3185734 -0.48604411 6.3185734 -0.48604411 9.20703125 1.57421875 C11.62626865 4.84730465 11.50111994 7.02899594 11.4375 11.0625 C11.43621094 12.29097656 11.43492187 13.51945312 11.43359375 14.78515625 C11 18 11 18 9.79296875 19.91796875 C7.38014528 21.37407355 5.67564768 21.33165154 2.875 21.25 C1.54082031 21.22679687 1.54082031 21.22679687 0.1796875 21.203125 C-2 21 -2 21 -3 20 C-3.07325168 17.13732433 -3.09238205 14.299281 -3.0625 11.4375 C-3.05798828 10.63119141 -3.05347656 9.82488281 -3.04882812 8.99414062 C-3.03700518 6.99606244 -3.01906914 4.99802217 -3 3 C-1.68 2.67 -0.36 2.34 1 2 C0.67 1.34 0.34 0.68 0 0 Z M3 6 C7 7 7 7 7 7 Z M3 8 C3 11.3 3 14.6 3 18 C4.32 17.67 5.64 17.34 7 17 C6.01 17 5.02 17 4 17 C4 14.03 4 11.06 4 8 C3.67 8 3.34 8 3 8 Z M5 8 C5 10.64 5 13.28 5 16 C5.33 16 5.66 16 6 16 C6 13.36 6 10.72 6 8 C5.67 8 5.34 8 5 8 Z " fill="#595959" transform="translate(442,111)"/>
<path d="M0 0 C2.50357861 0.8345262 4.66785852 1.79371992 7 3 C1 11 1 11 -0.625 12.96875 C-2.17130375 15.25306236 -2.67190886 17.05306175 -3.1875 19.75 C-3.34605469 20.54921875 -3.50460937 21.3484375 -3.66796875 22.171875 C-3.77753906 22.77515625 -3.88710938 23.3784375 -4 24 C-5.32 24 -6.64 24 -8 24 C-9.59092035 24.2950051 -11.17497145 24.62940505 -12.75 25 C-13.54921875 25.185625 -14.3484375 25.37125 -15.171875 25.5625 C-16.07679688 25.7790625 -16.07679688 25.7790625 -17 26 C-16.67 24.68 -16.34 23.36 -16 22 C-12.535 21.505 -12.535 21.505 -9 21 C-9 19.35 -9 17.7 -9 16 C-9.66 16.99 -10.32 17.98 -11 19 C-11 18.01 -11 17.02 -11 16 C-13.97065509 16.34227572 -13.97065509 16.34227572 -17 17 C-17.33 17.66 -17.66 18.32 -18 19 C-18.33 16.69 -18.66 14.38 -19 12 C-16 10 -16 10 -12.625 9.625 C-6.49513423 8.56812659 -3.61272986 4.81697315 0 0 Z M-15 14 C-11 15 -11 15 -11 15 Z M-5 16 C-4 19 -4 19 -4 19 Z " fill="#00A8E4" transform="translate(462,45)"/>
<path d="M0 0 C2.5 2.125 2.5 2.125 4 5 C4.07517661 9.2850666 3.69099731 11.23003157 0.8125 14.4375 C-2.56275179 16.31263988 -4.2007634 16.71235686 -8 16 C-10.875 13.9375 -10.875 13.9375 -13 11 C-13.5625 7.4375 -13.5625 7.4375 -13 4 C-9.01693752 -1.04521248 -6.191012 -1.49438221 0 0 Z " fill="#057755" transform="translate(65,122)"/>
<path d="M0 0 C2.64764845 1.67684402 2.95477045 2.85138861 3.875 5.875 C4.02524355 9.63108863 3.28344384 11.06414363 1 14 C-2.51824511 16.34549674 -3.85775694 16.57991403 -8 16 C-10.875 13.9375 -10.875 13.9375 -13 11 C-13.5625 7.4375 -13.5625 7.4375 -13 4 C-8.96677194 -1.10875554 -6.24807512 -1.31538424 0 0 Z " fill="#057755" transform="translate(98,122)"/>
<path d="M0 0 C0 2.31 0 4.62 0 7 C0.61875 7.226875 1.2375 7.45375 1.875 7.6875 C4.61410209 9.37929835 5.05024472 10.99244161 6 14 C6.66 13.67 7.32 13.34 8 13 C7.1875 15.9375 7.1875 15.9375 6 19 C5.01 19.33 4.02 19.66 3 20 C3 20.66 3 21.32 3 22 C-0.10048928 23.55024464 -2.57894218 23.28992015 -6 23 C-8.75329021 21.20437595 -10.52627461 19.94745078 -12 17 C-12.4000134 13.31987667 -12.51029897 11.6510711 -10.1875 8.6875 C-8 7 -8 7 -5 6 C-4.67 4.35 -4.34 2.7 -4 1 C-1 0 -1 0 0 0 Z M-11 12 C-10 16 -10 16 -10 16 Z M-6 12 C-5 16 -5 16 -5 16 Z M-3 12 C-3.33 12.99 -3.66 13.98 -4 15 C-2.68 15 -1.36 15 0 15 C-0.33 14.01 -0.66 13.02 -1 12 C-1.66 12 -2.32 12 -3 12 Z M1 12 C2 15 2 15 2 15 Z M-10 16 C-9 18 -9 18 -9 18 Z " fill="#0092DB" transform="translate(478,51)"/>
<path d="M0 0 C1.60332791 -0.08121924 3.20784026 -0.13929134 4.8125 -0.1875 C6.15248047 -0.23970703 6.15248047 -0.23970703 7.51953125 -0.29296875 C10.41647515 0.04918998 11.22555028 0.75393573 13 3 C13.391875 2.484375 13.78375 1.96875 14.1875 1.4375 C14.785625 0.963125 15.38375 0.48875 16 0 C18.6875 0.3125 18.6875 0.3125 21 1 C19.70700306 3.88437779 18.34058637 5.87219421 16 8 C17.32 8 18.64 8 20 8 C20.33 8.66 20.66 9.32 21 10 C21.66 10 22.32 10 23 10 C23 11.98 23 13.96 23 16 C22.34 16.33 21.68 16.66 21 17 C20.34 17.66 19.68 18.32 19 19 C16.875 18.625 16.875 18.625 15 18 C15 17.34 15 16.68 15 16 C13.02 16 11.04 16 9 16 C9 12.37 9 8.74 9 5 C8.34 5 7.68 5 7 5 C7 4.01 7 3.02 7 2 C5.35 2.33 3.7 2.66 2 3 C2 2.34 2 1.68 2 1 C1.34 0.67 0.68 0.34 0 0 Z M16 11 C17 13 17 13 17 13 Z M19 11 C20 13 20 13 20 13 Z " fill="#555555" transform="translate(544,116)"/>
<path d="M0 0 C0.66 -0.33 1.32 -0.66 2 -1 C2.99 -0.67 3.98 -0.34 5 0 C5 5.94 5 11.88 5 18 C2.69 18 0.38 18 -2 18 C-2 15.69 -2 13.38 -2 11 C-2.33 13.31 -2.66 15.62 -3 18 C-3.99 18 -4.98 18 -6 18 C-6 12.06 -6 6.12 -6 0 C-3.4791665 -1.26041675 -2.64903564 -0.66225891 0 0 Z " fill="#5C5C5C" transform="translate(341,114)"/>
<path d="M0 0 C0.33 0 0.66 0 1 0 C1.33 4.29 1.66 8.58 2 13 C3.32 13 4.64 13 6 13 C6 9.7 6 6.4 6 3 C6.33 3 6.66 3 7 3 C7 5.64 7 8.28 7 11 C9.7839183 9.60804085 9.97898997 7.84424221 11 5 C12.65 5 14.3 5 16 5 C16.33 5.66 16.66 6.32 17 7 C17.66 6.67 18.32 6.34 19 6 C19.19916016 7.04800781 19.19916016 7.04800781 19.40234375 8.1171875 C19.57894531 9.02726562 19.75554688 9.93734375 19.9375 10.875 C20.11152344 11.77992187 20.28554688 12.68484375 20.46484375 13.6171875 C20.89963701 15.99956317 20.89963701 15.99956317 22 18 C18.44706507 19.14947895 17.20023331 19.0868937 13.6875 17.5625 C12.800625 17.046875 11.91375 16.53125 11 16 C11 16.66 11 17.32 11 18 C9.02 18.33 7.04 18.66 5 19 C4.67 18.01 4.34 17.02 4 16 C2.68 15.67 1.36 15.34 0 15 C0 10.05 0 5.1 0 0 Z " fill="#515151" transform="translate(500,116)"/>
<path d="M0 0 C2.8125 1.125 2.8125 1.125 4.125 3.375 C4.76898363 5.95093452 5.36383459 8.50778513 5.8125 11.125 C7.7925 11.785 9.7725 12.445 11.8125 13.125 C11.4825 13.785 11.1525 14.445 10.8125 15.125 C9.843125 15.104375 8.87375 15.08375 7.875 15.0625 C4.93784105 14.76881501 4.93784105 14.76881501 3.8125 16.125 C0.14030758 16.125 -2.72250259 15.3219991 -6.1875 14.125 C-8.53299674 10.60675489 -8.76741403 9.26724306 -8.1875 5.125 C-5.62631197 1.58453419 -4.43832461 0.17405195 0 0 Z M-7.1875 6.125 C-6.1875 10.125 -6.1875 10.125 -6.1875 10.125 Z M-6.1875 10.125 C-5.1875 12.125 -5.1875 12.125 -5.1875 12.125 Z M-3.1875 13.125 C0.8125 14.125 0.8125 14.125 0.8125 14.125 Z " fill="#0096DD" transform="translate(458.1875,10.875)"/>
<path d="M0 0 C1.65 0 3.3 0 5 0 C5.33 1.65 5.66 3.3 6 5 C6.33 4.01 6.66 3.02 7 2 C7.66 2 8.32 2 9 2 C9 2.66 9 3.32 9 4 C10.32 4.33 11.64 4.66 13 5 C13 5.66 13 6.32 13 7 C12.360625 7.45375 11.72125 7.9075 11.0625 8.375 C8.7323843 10.21084873 8.39598702 11.12909413 8 14 C9.32 14.66 10.64 15.32 12 16 C11.34 17.32 10.68 18.64 10 20 C8.35 19.67 6.7 19.34 5 19 C4.67 17.68 4.34 16.36 4 15 C3.67 15.99 3.34 16.98 3 18 C2.01 18 1.02 18 0 18 C0 12.06 0 6.12 0 0 Z " fill="#5C5C5C" transform="translate(398,114)"/>
<path d="M0 0 C0.66 0.66 1.32 1.32 2 2 C4.58354218 2.16687448 4.58354218 2.16687448 7 2 C7.33 2.99 7.66 3.98 8 5 C8.66 5.66 9.32 6.32 10 7 C10.4140625 9.3828125 10.4140625 9.3828125 10.625 12.125 C10.69976562 13.03507812 10.77453125 13.94515625 10.8515625 14.8828125 C10.90054687 15.58148438 10.94953125 16.28015625 11 17 C10.01 17.33 9.02 17.66 8 18 C8 18.66 8 19.32 8 20 C5.6875 20.625 5.6875 20.625 3 21 C2.01 20.34 1.02 19.68 0 19 C-0.34057617 17.02880859 -0.34057617 17.02880859 -0.29296875 14.6484375 C-0.28330078 13.79765625 -0.27363281 12.946875 -0.26367188 12.0703125 C-0.23853516 11.18085937 -0.21339844 10.29140625 -0.1875 9.375 C-0.17396484 8.4778125 -0.16042969 7.580625 -0.14648438 6.65625 C-0.11106925 4.43690211 -0.06168461 2.21874812 0 0 Z M4 7 C3.67 7.99 3.34 8.98 3 10 C3.99 10 4.98 10 6 10 C6 9.01 6 8.02 6 7 C5.34 7 4.68 7 4 7 Z M3 13 C4 15 4 15 4 15 Z " fill="#585858" transform="translate(347,114)"/>
<path d="M0 0 C2.475 0.495 2.475 0.495 5 1 C4.12795467 7.09002147 -1.12459359 11.53233879 -5 16 C-5.59039062 16.68835938 -6.18078125 17.37671875 -6.7890625 18.0859375 C-8.3125 19.75 -8.3125 19.75 -11 22 C-13.16796875 21.640625 -13.16796875 21.640625 -15 21 C-14.8819862 17.10554449 -13.57331801 15.33966091 -10.875 12.75 C-10.25238281 12.16605469 -9.62976563 11.58210938 -8.98828125 10.98046875 C-5.61896206 7.62438853 -2.83900992 3.80548139 0 0 Z " fill="#F9B3B5" transform="translate(239,73)"/>
<path d="M0 0 C0.33 0.66 0.66 1.32 1 2 C1.99 2.33 2.98 2.66 4 3 C5.1875 5.5625 5.1875 5.5625 6 8 C5.01 8.33 4.02 8.66 3 9 C2.34 9.66 1.68 10.32 1 11 C0.34 11 -0.32 11 -1 11 C-1.99 11.495 -1.99 11.495 -3 12 C-3 11.01 -3 10.02 -3 9 C-4.32 8.34 -5.64 7.68 -7 7 C-7 8.65 -7 10.3 -7 12 C-9.375 12.625 -9.375 12.625 -12 13 C-12.66 12.34 -13.32 11.68 -14 11 C-13.90953769 6.92919603 -13.25516581 5.29442208 -10.5625 2.1875 C-6.60575172 -1.19021195 -5.04122562 -1.17986132 0 0 Z M-13 8 C-12 11 -12 11 -12 11 Z " fill="#0092E2" transform="translate(503,6)"/>
<path d="M0 0 C2.1891584 3.54102912 2.29855877 6.50768873 2.3125 10.625 C2.32925781 11.77226563 2.34601563 12.91953125 2.36328125 14.1015625 C2.24339844 15.05804688 2.12351562 16.01453125 2 17 C-1 19 -1 19 -3.625 18.75 C-4.40875 18.5025 -5.1925 18.255 -6 18 C-6.33 17.34 -6.66 16.68 -7 16 C-7.66 15.67 -8.32 15.34 -9 15 C-8.67 14.01 -8.34 13.02 -8 12 C-8.00836721 9.418715 -8.12910636 6.85525202 -8.2578125 4.27734375 C-8.17273438 3.52582031 -8.08765625 2.77429688 -8 2 C-4.77208445 -0.1519437 -3.71599191 -0.20086443 0 0 Z M-2 6 C-2 8.31 -2 10.62 -2 13 C-1.67 13 -1.34 13 -1 13 C-1 10.69 -1 8.38 -1 6 C-1.33 6 -1.66 6 -2 6 Z M-4 8 C-3 11 -3 11 -3 11 Z " fill="#5A5A5A" transform="translate(388,116)"/>
<path d="M0 0 C0.33 0 0.66 0 1 0 C1.02689449 2.95839355 1.04678741 5.91654427 1.0625 8.875 C1.07087891 9.71675781 1.07925781 10.55851562 1.08789062 11.42578125 C1.09111328 12.23144531 1.09433594 13.03710938 1.09765625 13.8671875 C1.10289307 14.61081543 1.10812988 15.35444336 1.11352539 16.12060547 C1 18 1 18 0 20 C-3.0625 20.625 -3.0625 20.625 -6 21 C-6.33 20.01 -6.66 19.02 -7 18 C-7.66 17.67 -8.32 17.34 -9 17 C-9.33 16.01 -9.66 15.02 -10 14 C-10.66 13.67 -11.32 13.34 -12 13 C-12.75 11.0625 -12.75 11.0625 -13 9 C-12.34 8.34 -11.68 7.68 -11 7 C-10.01 7.33 -9.02 7.66 -8 8 C-8.33 8.99 -8.66 9.98 -9 11 C-5.535 10.505 -5.535 10.505 -2 10 C-2.33 7.69 -2.66 5.38 -3 3 C-4.32 3.33 -5.64 3.66 -7 4 C-6.67 3.34 -6.34 2.68 -6 2 C-3.5625 2.375 -3.5625 2.375 -1 3 C-0.67 3.66 -0.34 4.32 0 5 C0 3.35 0 1.7 0 0 Z M-6 13 C-5 15 -5 15 -5 15 Z M-3 13 C-2 15 -2 15 -2 15 Z " fill="#525252" transform="translate(490,114)"/>
<path d="M0 0 C1.875 1.25 1.875 1.25 3 3 C3.1875 6.1875 3.1875 6.1875 3 9 C2.01 9 1.02 9 0 9 C-0.3403125 7.7934375 -0.3403125 7.7934375 -0.6875 6.5625 C-1.75357148 3.77241554 -1.75357148 3.77241554 -4.5 3.0625 C-5.7375 3.0315625 -5.7375 3.0315625 -7 3 C-7.66 3.66 -8.32 4.32 -9 5 C-8.05779145 7.82662565 -7.32708494 9.00720969 -5.4375 11.1875 C-4.633125 12.115625 -3.82875 13.04375 -3 14 C-4 15 -4 15 -6.3125 15.3125 C-9 15 -9 15 -11.3125 13.5 C-13.79757512 9.81840722 -13.34963598 7.40541329 -13 3 C-12.67 2.01 -12.34 1.02 -12 0 C-7.35924859 -2.26641348 -4.65029774 -2.17013895 0 0 Z " fill="#4F8440" transform="translate(481,30)"/>
<path d="M0 0 C1.65 0.33 3.3 0.66 5 1 C5 1.66 5 2.32 5 3 C6.65 2.67 8.3 2.34 10 2 C9.67 6.62 9.34 11.24 9 16 C6.03 16 3.06 16 0 16 C-0.06058594 15.22914063 -0.12117187 14.45828125 -0.18359375 13.6640625 C-0.26738281 12.66117188 -0.35117187 11.65828125 -0.4375 10.625 C-0.51871094 9.62726563 -0.59992187 8.62953125 -0.68359375 7.6015625 C-0.84965626 5.02072387 -0.84965626 5.02072387 -2 3 C-1.34 2.01 -0.68 1.02 0 0 Z " fill="#6B6B6B" transform="translate(541,116)"/>
<path d="M0 0 C0.2475 0.598125 0.495 1.19625 0.75 1.8125 C2.52533874 4.91934279 4.84236579 6.4211829 8 8 C5.525 9.485 5.525 9.485 3 11 C2.67 10.34 2.34 9.68 2 9 C-0.32156597 8.59270772 -2.6568787 8.25561323 -5 8 C-5 11.3 -5 14.6 -5 18 C-5.99 18 -6.98 18 -8 18 C-8.2763585 15.75308523 -8.52018861 13.50215158 -8.75 11.25 C-8.88921875 9.99703125 -9.0284375 8.7440625 -9.171875 7.453125 C-9 4 -9 4 -7.1875 1.5625 C-4.57041921 -0.30684342 -3.14802321 -0.34978036 0 0 Z M-4 5 C-3.34 5.66 -2.68 6.32 -2 7 C-2 6.34 -2 5.68 -2 5 C-2.66 5 -3.32 5 -4 5 Z " fill="#646464" transform="translate(510,111)"/>
<path d="M0 0 C0.33 0 0.66 0 1 0 C1 6.5456347 0.67103013 9.49345481 -3 15 C-3.99 15.33 -4.98 15.66 -6 16 C-7.23235646 17.49179992 -8.46309905 18.98512381 -9.671875 20.49609375 C-11.53531565 22.60616626 -13.44053454 23.85497598 -16 25 C-19 24 -19 24 -21 23 C-21 22.34 -21 21.68 -21 21 C-20.35933594 20.731875 -19.71867187 20.46375 -19.05859375 20.1875 C-9.28984223 15.7617169 -4.31794022 9.67218609 0 0 Z " fill="#009FE2" transform="translate(518,77)"/>
<path d="M0 0 C0.66 0 1.32 0 2 0 C2.10957031 0.61488281 2.21914063 1.22976562 2.33203125 1.86328125 C2.49058594 2.67152344 2.64914062 3.47976562 2.8125 4.3125 C2.96332031 5.11300781 3.11414063 5.91351563 3.26953125 6.73828125 C4.07572236 9.23445587 5.02052002 10.32422106 7 12 C6.01 13.32 5.02 14.64 4 16 C5.32 16 6.64 16 8 16 C7 19 7 19 5 21 C3.35 20.67 1.7 20.34 0 20 C0 16.37 0 12.74 0 9 C-0.66 9 -1.32 9 -2 9 C-2.66 7.68 -3.32 6.36 -4 5 C-3.34 4.67 -2.68 4.34 -2 4 C-1.34 4.33 -0.68 4.66 0 5 C-0.2784375 4.0409375 -0.2784375 4.0409375 -0.5625 3.0625 C-0.706875 2.381875 -0.85125 1.70125 -1 1 C-0.67 0.67 -0.34 0.34 0 0 Z " fill="#696969" transform="translate(359,113)"/>
<path d="M0 0 C1.7325 0.1546875 1.7325 0.1546875 3.5 0.3125 C4.16 1.3025 4.82 2.2925 5.5 3.3125 C6.16 3.6425 6.82 3.9725 7.5 4.3125 C7.17 8.2725 6.84 12.2325 6.5 16.3125 C4.52 16.3125 2.54 16.3125 0.5 16.3125 C0.51740234 15.15621094 0.51740234 15.15621094 0.53515625 13.9765625 C0.54417969 12.97367188 0.55320312 11.97078125 0.5625 10.9375 C0.57410156 9.93976563 0.58570313 8.94203125 0.59765625 7.9140625 C0.68006602 5.32817547 0.68006602 5.32817547 -0.5 3.3125 C-3.02733235 2.65694881 -3.02733235 2.65694881 -5.5 2.3125 C-3.5 0.3125 -3.5 0.3125 0 0 Z " fill="#585858" transform="translate(322.5,115.6875)"/>
<path d="M0 0 C2.31 0 4.62 0 7 0 C7 1.32 7 2.64 7 4 C7.66 4.66 8.32 5.32 9 6 C7.35 6.33 5.7 6.66 4 7 C4 10.63 4 14.26 4 18 C2.35 18 0.7 18 -1 18 C-1.02690844 15.37493198 -1.04679404 12.75013827 -1.0625 10.125 C-1.07087891 9.37863281 -1.07925781 8.63226563 -1.08789062 7.86328125 C-1.11328125 2.2265625 -1.11328125 2.2265625 0 0 Z M0 2 C1 4 1 4 1 4 Z " fill="#626262" transform="translate(413,114)"/>
<path d="M0 0 C0.99 0 1.98 0 3 0 C3 0.66 3 1.32 3 2 C2.67 2.33 2.34 2.66 2 3 C2.33 3 2.66 3 3 3 C3 5.64 3 8.28 3 11 C3.66 11.33 4.32 11.66 5 12 C5 13.65 5 15.3 5 17 C2.625 17.625 2.625 17.625 0 18 C-0.66 17.34 -1.32 16.68 -2 16 C-2.680625 15.67 -3.36125 15.34 -4.0625 15 C-6 14 -6 14 -7 12 C-7.07033769 10.12620395 -7.0843022 8.24998898 -7.0625 6.375 C-7.05347656 5.37210937 -7.04445313 4.36921875 -7.03515625 3.3359375 C-7.02355469 2.56507812 -7.01195312 1.79421875 -7 1 C-6.34 1 -5.68 1 -5 1 C-5 4.63 -5 8.26 -5 12 C-3.68 11.67 -2.36 11.34 -1 11 C-0.67 7.37 -0.34 3.74 0 0 Z " fill="#464646" transform="translate(290,117)"/>
<path d="M0 0 C0.99 0 1.98 0 3 0 C3 0.66 3 1.32 3 2 C5.31 1.34 7.62 0.68 10 0 C10.33 1.98 10.66 3.96 11 6 C11.99 6.33 12.98 6.66 14 7 C8.80645161 11.8312078 8.80645161 11.8312078 5.3125 12.5625 C3 12 3 12 1.1875 10.5 C-0.53328032 6.87730459 -0.19948095 3.98961898 0 0 Z M3 5 C3.33 5.66 3.66 6.32 4 7 C4.99 7 5.98 7 7 7 C6.67 6.34 6.34 5.68 6 5 C5.01 5 4.02 5 3 5 Z " fill="#606060" transform="translate(458,127)"/>
<path d="M0 0 C8.91 0 17.82 0 27 0 C27 0.33 27 0.66 27 1 C18.42 1 9.84 1 1 1 C1 20.14 1 39.28 1 59 C0.67 59 0.34 59 0 59 C0 39.53 0 20.06 0 0 Z " fill="#00A5A5" transform="translate(434,43)"/>
<path d="M0 0 C1.31911511 2.47736252 2.06610008 4.33050039 2.625 7.125 C3.66229004 10.10085677 3.66229004 10.10085677 5.90625 10.828125 C7.91461268 11.32314397 9.95792224 11.67063262 12 12 C12.33 13.32 12.66 14.64 13 16 C12.34 16 11.68 16 11 16 C11 16.66 11 17.32 11 18 C5.25656701 17.36184078 3.53726871 16.75077826 -0.25 12.4375 C-2.43430382 8.14690322 -1.84790863 6.23158505 -0.578125 1.7578125 C-0.38734375 1.17773438 -0.1965625 0.59765625 0 0 Z " fill="#E29E4C" transform="translate(466,34)"/>
<path d="M0 0 C1.32 0.33 2.64 0.66 4 1 C4.05380578 3.79192205 4.09357669 6.5828141 4.125 9.375 C4.15013672 10.56609375 4.15013672 10.56609375 4.17578125 11.78125 C4.19335473 13.85492015 4.10335168 15.92883241 4 18 C3.34 18.66 2.68 19.32 2 20 C0.65213008 18.95600254 -0.67792729 17.88897934 -2 16.8125 C-2.7425 16.22082031 -3.485 15.62914063 -4.25 15.01953125 C-6 13 -6 13 -6.25 10.26171875 C-6.1675 9.51535156 -6.085 8.76898438 -6 8 C-2.125 10.625 -2.125 10.625 -1 14 C-0.34 13.34 0.32 12.68 1 12 C1.02168637 9.09324817 1.02168637 9.09324817 0.625 5.875 C0.51414062 4.77929688 0.40328125 3.68359375 0.2890625 2.5546875 C0.19367188 1.71164063 0.09828125 0.86859375 0 0 Z " fill="#007CC9" transform="translate(403,61)"/>
<path d="M0 0 C0.33 0 0.66 0 1 0 C1.11269443 6.1105424 0.89604368 11.95170514 0 18 C-1.65 18 -3.3 18 -5 18 C-5.33 13.38 -5.66 8.76 -6 4 C-4.02 3.34 -2.04 2.68 0 2 C0 1.34 0 0.68 0 0 Z " fill="#646464" transform="translate(396,114)"/>
<path d="M0 0 C2.50357861 0.8345262 4.66785852 1.79371992 7 3 C4.84164588 5.37486613 2.84310913 6.72103186 -0.0625 8.0625 C-2.57818969 9.22899298 -4.01051026 10.01051026 -6 12 C-8.3828125 11.9765625 -8.3828125 11.9765625 -11.125 11.625 C-12.03507812 11.51414062 -12.94515625 11.40328125 -13.8828125 11.2890625 C-14.58148438 11.19367187 -15.28015625 11.09828125 -16 11 C-16 10.67 -16 10.34 -16 10 C-14.4221875 9.87625 -14.4221875 9.87625 -12.8125 9.75 C-6.59162832 8.52622196 -3.69937226 4.93249634 0 0 Z " fill="#029FD7" transform="translate(462,45)"/>
<path d="M0 0 C0.99 0 1.98 0 3 0 C3 0.66 3 1.32 3 2 C3.66 2 4.32 2 5 2 C5 1.34 5 0.68 5 0 C6.32 0.33 7.64 0.66 9 1 C7.02 1.99 7.02 1.99 5 3 C5 3.66 5 4.32 5 5 C4.34 5 3.68 5 3 5 C3 7.64 3 10.28 3 13 C2.01 12.67 1.02 12.34 0 12 C0.33 13.32 0.66 14.64 1 16 C-0.5 15 -0.5 15 -2 13 C-2.40012988 8.03838948 -2.2609658 4.52193161 0 0 Z " fill="#D68C61" transform="translate(463,29)"/>
<path d="M0 0 C0.66 0.99 1.32 1.98 2 3 C-0.23407889 6.35111834 -1.26215824 7.81553956 -5.25 8.8125 C-6.1575 8.874375 -7.065 8.93625 -8 9 C-9.38111722 6.7252187 -10.05694702 5.49828639 -9.75 2.8125 C-8.06188996 -1.26709927 -3.78820424 -0.27058602 0 0 Z M-5 1 C-4 3 -4 3 -4 3 Z M-1 1 C0 3 0 3 0 3 Z " fill="#5A5A5A" transform="translate(595,126)"/>
<path d="M0 0 C2.25 -0.3125 2.25 -0.3125 5 0 C7.3125 2.5 7.3125 2.5 9 5 C7.89131683 7.21736634 6.50559539 9.03617993 5 11 C2.69 10.67 0.38 10.34 -2 10 C-2 9.34 -2 8.68 -2 8 C-1.34 8 -0.68 8 0 8 C-0.66 6.35 -1.32 4.7 -2 3 C0.475 3.495 0.475 3.495 3 4 C2.01 2.68 1.02 1.36 0 0 Z M0 9 C4 10 4 10 4 10 Z " fill="#00A6E3" transform="translate(492,52)"/>
<path d="M0 0 C0.66 0 1.32 0 2 0 C2.04898438 0.63808594 2.09796875 1.27617188 2.1484375 1.93359375 C2.22320313 2.75988281 2.29796875 3.58617188 2.375 4.4375 C2.44460938 5.26121094 2.51421875 6.08492188 2.5859375 6.93359375 C2.72257813 7.61550781 2.85921875 8.29742187 3 9 C3.66 9.33 4.32 9.66 5 10 C5.66 8.68 6.32 7.36 7 6 C7.66 6 8.32 6 9 6 C9.33 5.01 9.66 4.02 10 3 C10.66 3.33 11.32 3.66 12 4 C11.67 4.99 11.34 5.98 11 7 C12.37168238 9.19038423 12.37168238 9.19038423 14 11 C13.01 11.33 12.02 11.66 11 12 C10.34 12.66 9.68 13.32 9 14 C5.97268465 13.84066761 4.23104284 13.14986563 1.6875 11.5 C-0.8126123 7.79612992 -0.33395379 4.34139932 0 0 Z " fill="#4D4D4D" transform="translate(571,121)"/>
<path d="M0 0 C0.33 0 0.66 0 1 0 C1.33 4.29 1.66 8.58 2 13 C3.32 13 4.64 13 6 13 C6 9.7 6 6.4 6 3 C6.33 3 6.66 3 7 3 C7 5.64 7 8.28 7 11 C8.32 11.66 9.64 12.32 11 13 C11 14.65 11 16.3 11 18 C9.02 18.33 7.04 18.66 5 19 C4.67 18.01 4.34 17.02 4 16 C2.68 15.67 1.36 15.34 0 15 C0 10.05 0 5.1 0 0 Z " fill="#5A5A5A" transform="translate(500,116)"/>
<path d="M0 0 C0.33 0.66 0.66 1.32 1 2 C1.66 2 2.32 2 3 2 C3.05395478 3.62463842 3.09277195 5.24978541 3.125 6.875 C3.14820313 7.77992187 3.17140625 8.68484375 3.1953125 9.6171875 C3 12 3 12 1 14 C1 11.03 1 8.06 1 5 C0.67 8.3 0.34 11.6 0 15 C-0.99 15 -1.98 15 -3 15 C-3.08078641 12.87561661 -3.13909141 10.7503677 -3.1875 8.625 C-3.22230469 7.44164063 -3.25710938 6.25828125 -3.29296875 5.0390625 C-3.19628906 4.03617187 -3.09960938 3.03328125 -3 2 C-2.01 1.34 -1.02 0.68 0 0 Z " fill="#6A6A6A" transform="translate(472,117)"/>
<path d="M0 0 C1.625 1.4375 1.625 1.4375 3 4 C2.66417503 7.09705247 1.88564868 10.01810374 1 13 C-0.32 13.33 -1.64 13.66 -3 14 C-3.33 13.01 -3.66 12.02 -4 11 C-3.34 11 -2.68 11 -2 11 C-2.9977758 8.00667261 -3.7522025 7.05233685 -6 5 C-6.66 5.66 -7.32 6.32 -8 7 C-8 5.68 -8 4.36 -8 3 C-6.865625 2.87625 -5.73125 2.7525 -4.5625 2.625 C-3.386875 2.41875 -2.21125 2.2125 -1 2 C-0.67 1.34 -0.34 0.68 0 0 Z " fill="#515151" transform="translate(467,114)"/>
<path d="M0 0 C0.33 0 0.66 0 1 0 C1 21.45 1 42.9 1 65 C0.67 65 0.34 65 0 65 C0 43.55 0 22.1 0 0 Z " fill="#0059AA" transform="translate(414,25)"/>
<path d="M0 0 C2.9375 0.375 2.9375 0.375 6 1 C6.33 1.66 6.66 2.32 7 3 C7.99 3.33 8.98 3.66 10 4 C11.1875 6.5625 11.1875 6.5625 12 9 C11.01 9.33 10.02 9.66 9 10 C8.34 10.66 7.68 11.32 7 12 C6.34 12 5.68 12 5 12 C4.01 12.495 4.01 12.495 3 13 C3.33 10.69 3.66 8.38 4 6 C2.68 5.67 1.36 5.34 0 5 C0 3.33333333 0 1.66666667 0 0 Z " fill="#00A9EE" transform="translate(497,5)"/>
<path d="M0 0 C0.99 0 1.98 0 3 0 C3 0.66 3 1.32 3 2 C4.65 1.67 6.3 1.34 8 1 C7.67 5.62 7.34 10.24 7 15 C6.01 15 5.02 15 4 15 C3.92652344 13.93458984 3.92652344 13.93458984 3.8515625 12.84765625 C3.73941406 11.46900391 3.73941406 11.46900391 3.625 10.0625 C3.55539062 9.14597656 3.48578125 8.22945312 3.4140625 7.28515625 C3.27742187 6.53105469 3.14078125 5.77695313 3 5 C2.34 4.67 1.68 4.34 1 4 C0.375 1.9375 0.375 1.9375 0 0 Z " fill="#636363" transform="translate(543,117)"/>
<path d="M0 0 C0.99 0 1.98 0 3 0 C3 5.94 3 11.88 3 18 C2.01 18 1.02 18 0 18 C0 12.06 0 6.12 0 0 Z " fill="#5F5F5F" transform="translate(492,114)"/>
<path d="M0 0 C0.33 0.66 0.66 1.32 1 2 C1.66 2 2.32 2 3 2 C3.061875 2.928125 3.061875 2.928125 3.125 3.875 C3.41375 4.57625 3.7025 5.2775 4 6 C6.99615946 7.3045656 6.99615946 7.3045656 10 8 C9.67 8.66 9.34 9.32 9 10 C7.02 10 5.04 10 3 10 C3 9.34 3 8.68 3 8 C-1.455 7.01 -1.455 7.01 -6 6 C-5.67 5.34 -5.34 4.68 -5 4 C-4.01 4.33 -3.02 4.66 -2 5 C-2.33 3.68 -2.66 2.36 -3 1 C-2.01 0.67 -1.02 0.34 0 0 Z " fill="#1197DC" transform="translate(460,16)"/>
<path d="M0 0 C0.99 0.33 1.98 0.66 3 1 C3 1.66 3 2.32 3 3 C4.65 3 6.3 3 8 3 C7.67 6.3 7.34 9.6 7 13 C6.01 13 5.02 13 4 13 C4 11.02 4 9.04 4 7 C3.01 7.33 2.02 7.66 1 8 C0.67 5.36 0.34 2.72 0 0 Z " fill="#606060" transform="translate(563,119)"/>
<path d="M0 0 C2.625 -0.1875 2.625 -0.1875 5 0 C5 0.66 5 1.32 5 2 C5.99 2.33 6.98 2.66 8 3 C7.690625 3.680625 7.38125 4.36125 7.0625 5.0625 C5.86629351 8.36965912 5.40994603 11.51545878 5 15 C4.67 15 4.34 15 4 15 C3.855625 13.906875 3.71125 12.81375 3.5625 11.6875 C3.11711896 8.06877013 3.11711896 8.06877013 2 5 C1.01 5.33 0.02 5.66 -1 6 C-1.33 5.01 -1.66 4.02 -2 3 C-1.34 2.01 -0.68 1.02 0 0 Z " fill="#545454" transform="translate(430,116)"/>
<path d="M0 0 C1.32 0.33 2.64 0.66 4 1 C4 4.3 4 7.6 4 11 C3.01 11.33 2.02 11.66 1 12 C0.67 10.02 0.34 8.04 0 6 C-0.66 6 -1.32 6 -2 6 C-1.34 4.02 -0.68 2.04 0 0 Z " fill="#6A6A6A" transform="translate(342,113)"/>
<path d="M0 0 C0.33 2.31 0.66 4.62 1 7 C-0.65 7.33 -2.3 7.66 -4 8 C-4.99 5.36 -5.98 2.72 -7 0 C-3 -1 -3 -1 0 0 Z " fill="#E88A4E" transform="translate(490,31)"/>
<path d="M0 0 C-0.25 2.375 -0.25 2.375 -1 5 C-4.20041648 7.46185883 -8.08359608 7.54810724 -12 8 C-12.33 7.34 -12.66 6.68 -13 6 C-12.34 6 -11.68 6 -11 6 C-11 5.34 -11 4.68 -11 4 C-9.68 4 -8.36 4 -7 4 C-6.67 3.01 -6.34 2.02 -6 1 C-3 0 -3 0 0 0 Z " fill="#0098DF" transform="translate(509,14)"/>
<path d="M0 0 C2.97 0.495 2.97 0.495 6 1 C5.67 5.29 5.34 9.58 5 14 C4.01 14 3.02 14 2 14 C1.93941406 13.15695313 1.87882812 12.31390625 1.81640625 11.4453125 C1.73261719 10.34960938 1.64882813 9.25390625 1.5625 8.125 C1.48128906 7.03445312 1.40007812 5.94390625 1.31640625 4.8203125 C1.16998297 2.05271029 1.16998297 2.05271029 0 0 Z " fill="#646464" transform="translate(317,118)"/>
<path d="M0 0 C0.33 0 0.66 0 1 0 C1.33 1.65 1.66 3.3 2 5 C2.33 4.01 2.66 3.02 3 2 C3.66 2 4.32 2 5 2 C5 2.66 5 3.32 5 4 C6.32 4.33 7.64 4.66 9 5 C9 5.66 9 6.32 9 7 C6.1875 9.1875 6.1875 9.1875 3 11 C2.01 10.67 1.02 10.34 0 10 C0 6.7 0 3.4 0 0 Z " fill="#636363" transform="translate(402,114)"/>
<path d="M0 0 C0.66 0.66 1.32 1.32 2 2 C1.57421875 4.75 1.57421875 4.75 0.6875 8 C0.26017578 9.60875 0.26017578 9.60875 -0.17578125 11.25 C-1 14 -1 14 -2 16 C-2.99 16 -3.98 16 -5 16 C-3.99082794 10.44955365 -2.77560677 4.95644066 0 0 Z " fill="#626262" transform="translate(379,116)"/>
<path d="M0 0 C1.32 0.33 2.64 0.66 4 1 C3.34 1.66 2.68 2.32 2 3 C2.66 3.556875 3.32 4.11375 4 4.6875 C6 7 6 7 6.1875 9.5625 C6.125625 10.366875 6.06375 11.17125 6 12 C6.33 12.99 6.66 13.98 7 15 C5.35 14.67 3.7 14.34 2 14 C1.566875 12.3603125 1.566875 12.3603125 1.125 10.6875 C0.18106796 6.95986155 0.18106796 6.95986155 -2 4 C-1.34 4 -0.68 4 0 4 C0 2.68 0 1.36 0 0 Z M3 9 C4 13 4 13 4 13 Z " fill="#0087D3" transform="translate(485,45)"/>
<path d="M0 0 C14.19 0 28.38 0 43 0 C43 0.33 43 0.66 43 1 C28.81 1 14.62 1 0 1 C0 0.67 0 0.34 0 0 Z " fill="#007FAF" transform="translate(444,104)"/>
<path d="M0 0 C0.33 0 0.66 0 1 0 C1 5.94 1 11.88 1 18 C0.34 17.01 -0.32 16.02 -1 15 C-1.33 16.65 -1.66 18.3 -2 20 C-2.33 20 -2.66 20 -3 20 C-3.33 17.69 -3.66 15.38 -4 13 C-3.01 12.67 -2.02 12.34 -1 12 C-1.01160156 11.30132812 -1.02320313 10.60265625 -1.03515625 9.8828125 C-1.04417969 8.97273438 -1.05320312 8.06265625 -1.0625 7.125 C-1.07410156 6.22007813 -1.08570313 5.31515625 -1.09765625 4.3828125 C-1 2 -1 2 0 0 Z " fill="#00B9F3" transform="translate(530,56)"/>
<path d="M0 0 C0.9075 0.185625 1.815 0.37125 2.75 0.5625 C5.68314324 0.95734621 7.2644657 0.94691572 10 0 C9.43628586 3.26954202 8.50037734 4.82575883 6 7 C3.5625 6.3125 3.5625 6.3125 1 5 C0.1875 2.375 0.1875 2.375 0 0 Z " fill="#009DE6" transform="translate(579,43)"/>
<path d="M0 0 C3.06813137 4.60219706 2.25317679 9.22776249 1.5 14.5 C1.2525 15.7375 1.2525 15.7375 1 17 C-1.13961648 13.79057528 -1.40632828 12.26017296 -1.75 8.5 C-1.84796875 7.5409375 -1.9459375 6.581875 -2.046875 5.59375 C-2 3 -2 3 0 0 Z " fill="#00A1E4" transform="translate(506,55)"/>
<path d="M0 0 C1.485 0.99 1.485 0.99 3 2 C5.67145537 1.19838209 5.67145537 1.19838209 8 0 C8 1.32 8 2.64 8 4 C7.01 4.495 7.01 4.495 6 5 C5.01 6.485 5.01 6.485 4 8 C3.34 8 2.68 8 2 8 C2 7.01 2 6.02 2 5 C1.01 5 0.02 5 -1 5 C-0.67 3.35 -0.34 1.7 0 0 Z " fill="#636363" transform="translate(479,117)"/>
<path d="M0 0 C1.32 0.33 2.64 0.66 4 1 C4 5.62 4 10.24 4 15 C0.51009191 11.51009191 0.56737983 10.55326487 0.3125 5.8125 C0.21388672 4.18248047 0.21388672 4.18248047 0.11328125 2.51953125 C0.07589844 1.68808594 0.03851563 0.85664062 0 0 Z " fill="#0088E2" transform="translate(403,61)"/>
<path d="M0 0 C0.99 0.33 1.98 0.66 3 1 C2.67 5.95 2.34 10.9 2 16 C1.01 16.33 0.02 16.66 -1 17 C-1.02709444 14.91673869 -1.04643873 12.83337559 -1.0625 10.75 C-1.07410156 9.58984375 -1.08570313 8.4296875 -1.09765625 7.234375 C-1.01782092 4.59022872 -0.78643778 2.50173909 0 0 Z M0 8 C0 10.31 0 12.62 0 15 C0.33 15 0.66 15 1 15 C1 12.69 1 10.38 1 8 C0.67 8 0.34 8 0 8 Z " fill="#009BDE" transform="translate(527,52)"/>
<path d="M0 0 C1.26908188 2.35686635 2.18019188 4.56309961 3 7.125 C3.79613329 10.08650724 3.79613329 10.08650724 6 12 C5.34 12 4.68 12 4 12 C4 12.66 4 13.32 4 14 C1.00675737 12.9024777 0.15389099 12.32317108 -1.25 9.375 C-1.4975 8.59125 -1.745 7.8075 -2 7 C-1.67 7 -1.34 7 -1 7 C-0.67 4.69 -0.34 2.38 0 0 Z " fill="#F19943" transform="translate(466,34)"/>
<path d="M0 0 C0.625 2.875 0.625 2.875 1 6 C0.34 6.66 -0.32 7.32 -1 8 C-1.99 8 -2.98 8 -4 8 C-4.33 7.34 -4.66 6.68 -5 6 C-5.99 5.67 -6.98 5.34 -8 5 C-2.25 0 -2.25 0 0 0 Z " fill="#0389DB" transform="translate(490,19)"/>
<path d="M0 0 C6.70126536 -0.48736475 11.06561592 0.92291196 17 4 C17 4.99 17 5.98 17 7 C14.125 7.125 14.125 7.125 11 7 C10.34 6.34 9.68 5.68 9 5 C9.66 4.67 10.32 4.34 11 4 C7.46588679 1.87953208 4.05606165 1.46800711 0 1 C0 0.67 0 0.34 0 0 Z " fill="#00B3F9" transform="translate(571,23)"/>
<path d="M0 0 C0.99 0.33 1.98 0.66 3 1 C2.67 2.32 2.34 3.64 2 5 C1.360625 5.103125 0.72125 5.20625 0.0625 5.3125 C-0.618125 5.539375 -1.29875 5.76625 -2 6 C-2.33 6.99 -2.66 7.98 -3 9 C-3.99 9.66 -4.98 10.32 -6 11 C-5.62671065 5.64951939 -4.0042343 3.49087093 0 0 Z " fill="#0091D1" transform="translate(495,6)"/>
<path d="M0 0 C0.66 0.33 1.32 0.66 2 1 C2.125 7.75 2.125 7.75 1 10 C0.01 10 -0.98 10 -2 10 C-2 7.03 -2 4.06 -2 1 C-1.34 0.67 -0.68 0.34 0 0 Z " fill="#606060" transform="translate(532,122)"/>
<path d="M0 0 C0.66 0 1.32 0 2 0 C2 5.94 2 11.88 2 18 C1.34 17.67 0.68 17.34 0 17 C0 11.39 0 5.78 0 0 Z " fill="#242424" transform="translate(332,114)"/>
<path d="M0 0 C2.64752004 2.57784846 4.94432065 4.91648098 7 8 C5.35 8.33 3.7 8.66 2 9 C0.35 7.02 -1.3 5.04 -3 3 C-2.01 2.67 -1.02 2.34 0 2 C0 1.34 0 0.68 0 0 Z " fill="#00BEEA" transform="translate(549,74)"/>
<path d="M0 0 C8.72638209 5.90552834 8.72638209 5.90552834 10 11 C10.33 11.66 10.66 12.32 11 13 C7.11276476 11.52553146 6.06098117 9.4947072 4 6 C3.01 5.67 2.02 5.34 1 5 C0.67 3.35 0.34 1.7 0 0 Z " fill="#0086D2" transform="translate(382,57)"/>
<path d="M0 0 C0.99 -0.33 1.98 -0.66 3 -1 C3 0.65 3 2.3 3 4 C1.02 4.33 -0.96 4.66 -3 5 C-3.33 4.34 -3.66 3.68 -4 3 C-6.01669827 1.86649466 -6.01669827 1.86649466 -8 1 C-3.375 -1.125 -3.375 -1.125 0 0 Z " fill="#898F9E" transform="translate(487,39)"/>
<path d="M0 0 C0.66 0 1.32 0 2 0 C2.33 3.63 2.66 7.26 3 11 C1.68 11 0.36 11 -1 11 C-1.02688151 9.35425434 -1.04634123 7.70838587 -1.0625 6.0625 C-1.07410156 5.14597656 -1.08570313 4.22945313 -1.09765625 3.28515625 C-1 1 -1 1 0 0 Z " fill="#5F5F5F" transform="translate(554,121)"/>
<path d="M0 0 C1.6026782 -0.10824843 3.20745748 -0.18570645 4.8125 -0.25 C5.70582031 -0.29640625 6.59914063 -0.3428125 7.51953125 -0.390625 C10 0 10 0 11.82421875 2.015625 C12.40623047 2.99789062 12.40623047 2.99789062 13 4 C11.125 5.0625 11.125 5.0625 9 6 C8.34 5.67 7.68 5.34 7 5 C7 4.01 7 3.02 7 2 C5.35 2.33 3.7 2.66 2 3 C2 2.34 2 1.68 2 1 C1.34 0.67 0.68 0.34 0 0 Z " fill="#333333" transform="translate(544,116)"/>
<path d="M0 0 C0.99 0.66 1.98 1.32 3 2 C1.25 5.875 1.25 5.875 -1 7 C-2.36244796 8.64295195 -3.69864875 10.30824337 -5 12 C-5.66 11.67 -6.32 11.34 -7 11 C-6.20890398 9.72881136 -5.41709922 8.45806377 -4.625 7.1875 C-4.18414062 6.47980469 -3.74328125 5.77210937 -3.2890625 5.04296875 C-2.21811524 3.34567961 -1.11323761 1.66985642 0 0 Z " fill="#028BB3" transform="translate(347,86)"/>
<path d="M0 0 C0.99 0.33 1.98 0.66 3 1 C2.88658363 3.31309705 2.75896193 5.62550185 2.625 7.9375 C2.52058594 9.86916016 2.52058594 9.86916016 2.4140625 11.83984375 C2.27742188 12.88269531 2.14078125 13.92554688 2 15 C1.01 15.495 1.01 15.495 0 16 C0 10.72 0 5.44 0 0 Z " fill="#BFBFBF" transform="translate(439,115)"/>
<path d="M0 0 C1.17353189 3.52059568 1.20146402 6.306493 1 10 C0.34 10.66 -0.32 11.32 -1 12 C-3 9 -3 9 -2.75 5.4375 C-2 2 -2 2 0 0 Z M-1 3 C0 5 0 5 0 5 Z " fill="#0091CB" transform="translate(442,56)"/>
<path d="M0 0 C0.515625 0.2475 1.03125 0.495 1.5625 0.75 C-1.92462375 4.23712375 -4.47491909 6.06075265 -9.4375 6.75 C-9.4375 5.76 -9.4375 4.77 -9.4375 3.75 C-3.0375 -0.31153846 -3.0375 -0.31153846 0 0 Z " fill="#00C3EE" transform="translate(554.4375,24.25)"/>
<path d="M0 0 C4.75 0.75 4.75 0.75 7 3 C7.66 3.33 8.32 3.66 9 4 C6.525 5.485 6.525 5.485 4 7 C3.67 6.34 3.34 5.68 3 5 C2.34 5 1.68 5 1 5 C0.67 3.35 0.34 1.7 0 0 Z " fill="#6F6F6F" transform="translate(509,115)"/>
<path d="M0 0 C0.33 0 0.66 0 1 0 C1 9.57 1 19.14 1 29 C0.67 29 0.34 29 0 29 C0 19.43 0 9.86 0 0 Z " fill="#007B84" transform="translate(442,73)"/>
<path d="M0 0 C2.375 -0.1875 2.375 -0.1875 5 0 C5.66 0.99 6.32 1.98 7 3 C5.625 4.5 5.625 4.5 4 6 C3.34 6 2.68 6 2 6 C1.67 6.66 1.34 7.32 1 8 C1.020625 7.236875 1.04125 6.47375 1.0625 5.6875 C1.12942841 2.89814214 1.12942841 2.89814214 0 0 Z " fill="#535353" transform="translate(361,116)"/>
<path d="M0 0 C1.65 0 3.3 0 5 0 C5.33 0.66 5.66 1.32 6 2 C5.01 3.485 5.01 3.485 4 5 C1.375 5.1875 1.375 5.1875 -1 5 C-0.67 3.35 -0.34 1.7 0 0 Z " fill="#4D4D4D" transform="translate(383,116)"/>
<path d="M0 0 C1.65 0.33 3.3 0.66 5 1 C4.3125 2.9375 4.3125 2.9375 3 5 C0.5 5.875 0.5 5.875 -2 6 C-2.66 5.34 -3.32 4.68 -4 4 C-3.01 3.34 -2.02 2.68 -1 2 C-0.67 1.34 -0.34 0.68 0 0 Z " fill="#5D5D5D" transform="translate(311,116)"/>
<path d="M0 0 C-1.97420135 2.52259061 -2.96745642 2.9929808 -6.1875 3.6875 C-7.5796875 3.8421875 -7.5796875 3.8421875 -9 4 C-8.67 2.35 -8.34 0.7 -8 -1 C-4.59745511 -2.2151946 -3.06748874 -1.86240388 0 0 Z " fill="#00BBF6" transform="translate(580,84)"/>
<path d="M0 0 C0.66 0 1.32 0 2 0 C2 0.66 2 1.32 2 2 C3.32 1.34 4.64 0.68 6 0 C6.99 1.32 7.98 2.64 9 4 C8 5 8 5 5.625 5.25 C3 5 3 5 1.1875 3.625 C0 2 0 2 0 0 Z " fill="#407C41" transform="translate(469,40)"/>
<path d="M0 0 C1.65 0 3.3 0 5 0 C5.33 0.99 5.66 1.98 6 3 C4.68 3 3.36 3 2 3 C2 3.99 2 4.98 2 6 C1.01 5.67 0.02 5.34 -1 5 C-0.67 3.35 -0.34 1.7 0 0 Z " fill="#1A92CE" transform="translate(474,34)"/>
<path d="M0 0 C1.8125 0.1875 1.8125 0.1875 4 1 C5.8125 3.4375 5.8125 3.4375 7 6 C6.67 6.66 6.34 7.32 6 8 C4.02 6.68 2.04 5.36 0 4 C0.33 3.34 0.66 2.68 1 2 C0.67 1.34 0.34 0.68 0 0 Z " fill="#00A5E2" transform="translate(589,29)"/>
<path d="M0 0 C0.33 0.66 0.66 1.32 1 2 C1.66 2 2.32 2 3 2 C3 1.34 3 0.68 3 0 C3.99 0 4.98 0 6 0 C5.690625 0.680625 5.38125 1.36125 5.0625 2.0625 C3.86629351 5.36965912 3.40994603 8.51545878 3 12 C2.67 12 2.34 12 2 12 C1.67 9.69 1.34 7.38 1 5 C0.67 5 0.34 5 0 5 C0 3.35 0 1.7 0 0 Z " fill="#434343" transform="translate(432,119)"/>
<path d="M0 0 C0.66 0.99 1.32 1.98 2 3 C1.34 3.66 0.68 4.32 0 5 C-3.625 4.625 -3.625 4.625 -7 4 C-7 3.34 -7 2.68 -7 2 C-4.69 1.34 -2.38 0.68 0 0 Z M-5 3 C-1 4 -1 4 -1 4 Z " fill="#0093DF" transform="translate(497,58)"/>
<path d="M0 0 C0.66 0.66 1.32 1.32 2 2 C-0.23407889 5.35111834 -1.26215824 6.81553956 -5.25 7.8125 C-6.61125 7.9053125 -6.61125 7.9053125 -8 8 C-8.33 7.34 -8.66 6.68 -9 6 C-7.88625 5.7525 -6.7725 5.505 -5.625 5.25 C-1.95384802 4.38994661 -1.95384802 4.38994661 -0.5625 1.875 C-0.376875 1.25625 -0.19125 0.6375 0 0 Z " fill="#353535" transform="translate(595,127)"/>
<path d="M0 0 C0.99 0.66 1.98 1.32 3 2 C2.34 3.32 1.68 4.64 1 6 C-0.65 5.67 -2.3 5.34 -4 5 C-4 4.01 -4 3.02 -4 2 C-3.01 2.33 -2.02 2.66 -1 3 C-0.67 2.01 -0.34 1.02 0 0 Z " fill="#4C4C4C" transform="translate(407,128)"/>
<path d="M0 0 C0.66 0 1.32 0 2 0 C2.04898438 0.60328125 2.09796875 1.2065625 2.1484375 1.828125 C2.22320313 2.62734375 2.29796875 3.4265625 2.375 4.25 C2.44460938 5.03890625 2.51421875 5.8278125 2.5859375 6.640625 C3.01507113 9.085877 3.78600638 10.84836903 5 13 C2.5 12.125 2.5 12.125 0 10 C-0.46087248 6.63291991 -0.28526928 3.37885612 0 0 Z " fill="#424242" transform="translate(571,121)"/>
<path d="M0 0 C0.33 0 0.66 0 1 0 C1 3.96 1 7.92 1 12 C1.66 12 2.32 12 3 12 C2.67 12.99 2.34 13.98 2 15 C1.01 14.67 0.02 14.34 -1 14 C-0.67 9.38 -0.34 4.76 0 0 Z " fill="#00A8E8" transform="translate(520,60)"/>
<path d="M0 0 C2.97 1.98 2.97 1.98 6 4 C5.01 4.66 4.02 5.32 3 6 C1.0625 5.1875 1.0625 5.1875 -1 4 C-1.33 3.01 -1.66 2.02 -2 1 C-1.34 0.67 -0.68 0.34 0 0 Z " fill="#00A5F7" transform="translate(540,91)"/>
<path d="M0 0 C1.65 0.33 3.3 0.66 5 1 C3.06745228 3.0245738 1.36841312 4.42105792 -1 6 C-1.99 5.67 -2.98 5.34 -4 5 C-2.68 3.35 -1.36 1.7 0 0 Z " fill="#2698D4" transform="translate(464,47)"/>
<path d="M0 0 C2.875 -0.1875 2.875 -0.1875 6 0 C6.66 0.99 7.32 1.98 8 3 C6.35 3.33 4.7 3.66 3 4 C2.01 2.68 1.02 1.36 0 0 Z " fill="#0074B6" transform="translate(388,49)"/>
<path d="M0 0 C0.66 0.33 1.32 0.66 2 1 C2.40729228 3.32156597 2.74438677 5.6568787 3 8 C-0.875 6.25 -0.875 6.25 -2 4 C-1.0625 1.875 -1.0625 1.875 0 0 Z M1 4 C2 6 2 6 2 6 Z " fill="#92A4B2" transform="translate(482,41)"/>
<path d="M0 0 C1.98 0.99 1.98 0.99 4 2 C3.67 2.66 3.34 3.32 3 4 C2.34 3.67 1.68 3.34 1 3 C1 6.96 1 10.92 1 15 C0.67 15 0.34 15 0 15 C0 10.05 0 5.1 0 0 Z " fill="#0E7DC8" transform="translate(360,26)"/>
<path d="M0 0 C1.65 0.33 3.3 0.66 5 1 C4.34 2.32 3.68 3.64 3 5 C1.68 5 0.36 5 -1 5 C-0.67 3.35 -0.34 1.7 0 0 Z " fill="#525252" transform="translate(534,116)"/>
<path d="M0 0 C1.670625 0.061875 1.670625 0.061875 3.375 0.125 C3.375 1.115 3.375 2.105 3.375 3.125 C0.10224974 3.125 -2.471632 2.82574844 -5.625 2.125 C-3.625 0.125 -3.625 0.125 0 0 Z " fill="#323232" transform="translate(322.625,115.875)"/>
<path d="M0 0 C2.31 0 4.62 0 7 0 C6.67 1.65 6.34 3.3 6 5 C5.01 5 4.02 5 3 5 C3 4.01 3 3.02 3 2 C2.01 2 1.02 2 0 2 C0 1.34 0 0.68 0 0 Z " fill="#565656" transform="translate(413,114)"/>
<path d="M0 0 C3.875 4.75 3.875 4.75 5 7 C2.69 6.34 0.38 5.68 -2 5 C-1.34 3.35 -0.68 1.7 0 0 Z " fill="#0762B9" transform="translate(298,73)"/>
<path d="M0 0 C2.31 0.66 4.62 1.32 7 2 C7.33 3.32 7.66 4.64 8 6 C6.35 6 4.7 6 3 6 C2.67 5.01 2.34 4.02 2 3 C1.34 2.67 0.68 2.34 0 2 C0 1.34 0 0.68 0 0 Z " fill="#009DE6" transform="translate(471,68)"/>
<path d="M0 0 C0.33 0.99 0.66 1.98 1 3 C-1.97 3.66 -4.94 4.32 -8 5 C-7.67 3.68 -7.34 2.36 -7 1 C-3.535 0.505 -3.535 0.505 0 0 Z " fill="#00A5E9" transform="translate(453,66)"/>
<path d="M0 0 C0.33 0 0.66 0 1 0 C1.48828125 2.01822917 1.9765625 4.03645833 2.46484375 6.0546875 C2.94846992 8.0585657 2.94846992 8.0585657 4 10 C2.68 10.99 1.36 11.98 0 13 C0 8.71 0 4.42 0 0 Z " fill="#00B6F7" transform="translate(543,57)"/>
<path d="M0 0 C0.66 0.33 1.32 0.66 2 1 C1.34 1.66 0.68 2.32 0 3 C0.33 3.99 0.66 4.98 1 6 C1.34227417 7.33106622 1.67751743 8.66400079 2 10 C1.01 10 0.02 10 -1 10 C-2.38125018 7.23749964 -2.19079306 5.05268901 -2 2 C-1.34 1.34 -0.68 0.68 0 0 Z " fill="#4A8337" transform="translate(472,32)"/>
<path d="M0 0 C3.53372712 1.96318174 6.24479785 4.04070881 9 7 C8.67 7.66 8.34 8.32 8 9 C7.51789063 8.566875 7.03578125 8.13375 6.5390625 7.6875 C5.90742188 7.130625 5.27578125 6.57375 4.625 6 C3.99851562 5.443125 3.37203125 4.88625 2.7265625 4.3125 C1.09610167 2.79827513 1.09610167 2.79827513 -1 3 C-0.67 2.01 -0.34 1.02 0 0 Z " fill="#0295AD" transform="translate(341,30)"/>
<path d="M0 0 C2.475 0.99 2.475 0.99 5 2 C4.67 3.32 4.34 4.64 4 6 C1.525 5.01 1.525 5.01 -1 4 C-0.67 2.68 -0.34 1.36 0 0 Z " fill="#00A8E8" transform="translate(502,27)"/>
<path d="M0 0 C1.134375 0.020625 2.26875 0.04125 3.4375 0.0625 C3.4375 1.0525 3.4375 2.0425 3.4375 3.0625 C-0.27849191 3.26336443 -1.33458445 3.2144437 -4.5625 1.0625 C-3.5625 0.0625 -3.5625 0.0625 0 0 Z " fill="#008AE0" transform="translate(558.5625,100.9375)"/>
<path d="M0 0 C0.33 0 0.66 0 1 0 C1 5.94 1 11.88 1 18 C0.67 18 0.34 18 0 18 C0 12.06 0 6.12 0 0 Z " fill="#424242" transform="translate(496,114)"/>
<path d="M0 0 C2.78388975 1.70625501 3.85384206 2.47626739 4.75 5.6875 C4.8325 6.450625 4.915 7.21375 5 8 C3.0625 7.1875 3.0625 7.1875 1 6 C0 3 0 3 0 0 Z " fill="#0084D4" transform="translate(397,69)"/>
<path d="M0 0 C1.32 0.33 2.64 0.66 4 1 C3.34 1.66 2.68 2.32 2 3 C2.33 3.99 2.66 4.98 3 6 C1.68 6 0.36 6 -1 6 C-1.33 5.34 -1.66 4.68 -2 4 C-1.34 4 -0.68 4 0 4 C0 2.68 0 1.36 0 0 Z " fill="#0066C4" transform="translate(485,45)"/>
<path d="M0 0 C1.65 0.33 3.3 0.66 5 1 C5.33 2.32 5.66 3.64 6 5 C5.01 5.33 4.02 5.66 3 6 C3 4.35 3 2.7 3 1 C1.68 1.33 0.36 1.66 -1 2 C-0.67 1.34 -0.34 0.68 0 0 Z " fill="#383838" transform="translate(484,116)"/>
<path d="M0 0 C5.61 0 11.22 0 17 0 C17 0.33 17 0.66 17 1 C11.39 1 5.78 1 0 1 C0 0.67 0 0.34 0 0 Z " fill="#005AB4" transform="translate(359,104)"/>
<path d="M0 0 C2.375 0.3125 2.375 0.3125 5 1 C5.66 1.99 6.32 2.98 7 4 C4.69 3.67 2.38 3.34 0 3 C0 2.01 0 1.02 0 0 Z " fill="#0093DE" transform="translate(420,93)"/>
<path d="M0 0 C0 3.51716303 -0.82445585 4.37121748 -3 7 C-3.66 6.67 -4.32 6.34 -5 6 C-5 4.68 -5 3.36 -5 2 C-4.360625 1.855625 -3.72125 1.71125 -3.0625 1.5625 C-1.02454854 1.18992819 -1.02454854 1.18992819 0 0 Z " fill="#00ADD6" transform="translate(518,85)"/>
<path d="M0 0 C1.09054687 0.02320313 2.18109375 0.04640625 3.3046875 0.0703125 C4.40039062 0.08835938 5.49609375 0.10640625 6.625 0.125 C7.46804688 0.14820313 8.31109375 0.17140625 9.1796875 0.1953125 C9.1796875 0.5253125 9.1796875 0.8553125 9.1796875 1.1953125 C4.5596875 1.5253125 -0.0603125 1.8553125 -4.8203125 2.1953125 C-2.8203125 0.1953125 -2.8203125 0.1953125 0 0 Z " fill="#00D7FF" transform="translate(562.8203125,42.8046875)"/>
<path d="M0 0 C1.21236328 0.01353516 1.21236328 0.01353516 2.44921875 0.02734375 C3.37154297 0.04474609 3.37154297 0.04474609 4.3125 0.0625 C4.3125 0.3925 4.3125 0.7225 4.3125 1.0625 C-0.3075 1.7225 -4.9275 2.3825 -9.6875 3.0625 C-6.66074696 0.03574696 -4.08749979 -0.05923913 0 0 Z " fill="#009ABA" transform="translate(309.6875,22.9375)"/>
<path d="M0 0 C0 0.99 0 1.98 0 3 C-1 4 -1 4 -3.06640625 4.09765625 C-3.89011719 4.08605469 -4.71382813 4.07445312 -5.5625 4.0625 C-6.38878906 4.05347656 -7.21507812 4.04445312 -8.06640625 4.03515625 C-8.70449219 4.02355469 -9.34257812 4.01195312 -10 4 C-10 3.67 -10 3.34 -10 3 C-8.72125 2.87625 -7.4425 2.7525 -6.125 2.625 C-2.65209064 2.30957601 -2.65209064 2.30957601 0 0 Z " fill="#525252" transform="translate(452,130)"/>
<path d="M0 0 C3.7952131 1.49097658 5.61042731 3.75700849 8 7 C4.2047869 5.50902342 2.38957269 3.24299151 0 0 Z " fill="#00C3E0" transform="translate(589,83)"/>
<path d="M0 0 C0.33 0 0.66 0 1 0 C1 3.63 1 7.26 1 11 C0.67 11 0.34 11 0 11 C0 7.37 0 3.74 0 0 Z " fill="#007EBE" transform="translate(337,58)"/>
<path d="M0 0 C0.33 0 0.66 0 1 0 C1 3.3 1 6.6 1 10 C0.67 10 0.34 10 0 10 C0 6.7 0 3.4 0 0 Z " fill="#6A6A6A" transform="translate(551,122)"/>
<path d="M0 0 C0.33 0 0.66 0 1 0 C1 3.3 1 6.6 1 10 C0.67 10 0.34 10 0 10 C0 6.7 0 3.4 0 0 Z " fill="#626262" transform="translate(528,122)"/>
<path d="M0 0 C2.64 0 5.28 0 8 0 C8 0.33 8 0.66 8 1 C3.545 1.495 3.545 1.495 -1 2 C-0.67 1.34 -0.34 0.68 0 0 Z " fill="#0099E5" transform="translate(445,53)"/>
<path d="M0 0 C3.3 0 6.6 0 10 0 C10 0.33 10 0.66 10 1 C6.7 1 3.4 1 0 1 C0 0.67 0 0.34 0 0 Z " fill="#0080E5" transform="translate(312,43)"/>
<path d="M0 0 C0.33 0 0.66 0 1 0 C1 2.97 1 5.94 1 9 C0.67 9 0.34 9 0 9 C0 6.03 0 3.06 0 0 Z " fill="#000000" transform="translate(330,122)"/>
<path d="M0 0 C0.99 0 1.98 0 3 0 C3 0.99 3 1.98 3 3 C2.01 3 1.02 3 0 3 C0 2.01 0 1.02 0 0 Z " fill="#636363" transform="translate(454,114)"/>
<path d="M0 0 C0.99 0 1.98 0 3 0 C3 0.99 3 1.98 3 3 C2.01 3 1.02 3 0 3 C0 2.01 0 1.02 0 0 Z " fill="#636363" transform="translate(469,114)"/>
<path d="M0 0 C2.97 0 5.94 0 9 0 C9 0.33 9 0.66 9 1 C6.03 1 3.06 1 0 1 C0 0.67 0 0.34 0 0 Z " fill="#00AAE2" transform="translate(563,104)"/>
<path d="M0 0 C0.33 0 0.66 0 1 0 C1.33 2.31 1.66 4.62 2 7 C0.4375 5.75 0.4375 5.75 -1 4 C-0.6875 1.8125 -0.6875 1.8125 0 0 Z " fill="#008DFF" transform="translate(464,16)"/>
<path d="M0 0 C0.99 0.495 0.99 0.495 2 1 C1.67 2.32 1.34 3.64 1 5 C0.67 5 0.34 5 0 5 C0 3.35 0 1.7 0 0 Z " fill="#4F4F4F" transform="translate(595,121)"/>
<path d="M0 0 C2.64 0 5.28 0 8 0 C8 0.33 8 0.66 8 1 C5.36 1 2.72 1 0 1 C0 0.67 0 0.34 0 0 Z " fill="#004FBF" transform="translate(313,104)"/>
<path d="M0 0 C0.66 0.33 1.32 0.66 2 1 C1.01 1.66 0.02 2.32 -1 3 C-1.99 2.67 -2.98 2.34 -4 2 C-2.125 0.9375 -2.125 0.9375 0 0 Z " fill="#00CFEF" transform="translate(587,99)"/>
<path d="M0 0 C0.99 0.33 1.98 0.66 3 1 C1.35 1.33 -0.3 1.66 -2 2 C-1.34 1.34 -0.68 0.68 0 0 Z " fill="#616161" transform="translate(417,111)"/>
<path d="M0 0 C2.31 0 4.62 0 7 0 C7 0.33 7 0.66 7 1 C4.69 1 2.38 1 0 1 C0 0.67 0 0.34 0 0 Z " fill="#00FFFF" transform="translate(556,23)"/>
<path d="M0 0 C2.31 0 4.62 0 7 0 C7 0.33 7 0.66 7 1 C4.69 1 2.38 1 0 1 C0 0.67 0 0.34 0 0 Z " fill="#00B6FF" transform="translate(321,23)"/>
<path d="M0 0 C0.66 0.66 1.32 1.32 2 2 C0.35 2 -1.3 2 -3 2 C-2.01 1.34 -1.02 0.68 0 0 Z " fill="#007FD4" transform="translate(310,43)"/>
<path d="M0 0 C0.99 0.33 1.98 0.66 3 1 C2.67 1.66 2.34 2.32 2 3 C1.34 2.01 0.68 1.02 0 0 Z " fill="#00B2F2" transform="translate(480,57)"/>
<path d="M0 0 C1.485 0.99 1.485 0.99 3 2 C1.68 1.67 0.36 1.34 -1 1 C-0.67 0.67 -0.34 0.34 0 0 Z " fill="#00CCFF" transform="translate(573,43)"/>
<path d="M0 0 C1.485 0.99 1.485 0.99 3 2 C1.68 1.67 0.36 1.34 -1 1 C-0.67 0.67 -0.34 0.34 0 0 Z " fill="#006699" transform="translate(323,43)"/>
<path d="M0 0 C4 1 4 1 4 1 Z " fill="#202020" transform="translate(476,133)"/>
<path d="M0 0 C0.66 0 1.32 0 2 0 C2 0.66 2 1.32 2 2 C1.34 2 0.68 2 0 2 C0 1.34 0 0.68 0 0 Z " fill="#777777" transform="translate(462,122)"/>
<path d="M0 0 C0.99 0.33 1.98 0.66 3 1 C2.01 1 1.02 1 0 1 C0 0.67 0 0.34 0 0 Z " fill="#202020" transform="translate(469,111)"/>
<path d="M0 0 C0.66 0.33 1.32 0.66 2 1 C1.01 1 0.02 1 -1 1 C-0.67 0.67 -0.34 0.34 0 0 Z " fill="#0054E2" transform="translate(471,56)"/>
<path d="M0 0 C1 4 1 4 1 4 Z " fill="#009AEC" transform="translate(479,53)"/>
<path d="M0 0 C0.99 0.33 1.98 0.66 3 1 C2.01 1 1.02 1 0 1 C0 0.67 0 0.34 0 0 Z " fill="#008AE9" transform="translate(396,52)"/>
<path d="M0 0 C3 1 3 1 3 1 Z " fill="#2A2A2A" transform="translate(537,133)"/>
<path d="M0 0 C3 1 3 1 3 1 Z " fill="#2A2A2A" transform="translate(430,133)"/>
<path d="" fill="#8E8E8E" transform="translate(0,0)"/>
<path d="" fill="#C6C6C6" transform="translate(0,0)"/>
<path d="M0 0 C0.99 0.495 0.99 0.495 2 1 C1.01 1.495 1.01 1.495 0 2 C0 1.34 0 0.68 0 0 Z " fill="#2A2A2A" transform="translate(493,111)"/>
<path d="M0 0 C0.66 0 1.32 0 2 0 C1.67 0.66 1.34 1.32 1 2 C0.67 1.34 0.34 0.68 0 0 Z " fill="#2A2A2A" transform="translate(398,111)"/>
<path d="M0 0 C0.99 0.495 0.99 0.495 2 1 C1.01 1.495 1.01 1.495 0 2 C0 1.34 0 0.68 0 0 Z " fill="#2A2A2A" transform="translate(344,111)"/>
<path d="" fill="#00D4E9" transform="translate(0,0)"/>
<path d="" fill="#0088C3" transform="translate(0,0)"/>
<path d="M0 0 C0.99 0.495 0.99 0.495 2 1 C1.01 1.495 1.01 1.495 0 2 C0 1.34 0 0.68 0 0 Z " fill="#00478D" transform="translate(539,32)"/>
<path d="M0 0 C3 1 3 1 3 1 Z " fill="#FFAA55" transform="translate(479,23)"/>
<path d="M0 0 C3 1 3 1 3 1 Z " fill="#FFFF55" transform="translate(470,23)"/>
<path d="M0 0 C3 1 3 1 3 1 Z " fill="#AA5500" transform="translate(474,22)"/>
<path d="M0 0 C2 1 2 1 2 1 Z " fill="#404040" transform="translate(568,133)"/>
<path d="M0 0 C2 1 2 1 2 1 Z " fill="#404040" transform="translate(554,133)"/>
<path d="M0 0 C2 1 2 1 2 1 Z " fill="#404040" transform="translate(548,133)"/>
<path d="M0 0 C2 1 2 1 2 1 Z " fill="#7F7F7F" transform="translate(541,133)"/>
<path d="M0 0 C2 1 2 1 2 1 Z " fill="#404040" transform="translate(531,133)"/>
<path d="M0 0 C2 1 2 1 2 1 Z " fill="#404040" transform="translate(525,133)"/>
<path d="M0 0 C2 1 2 1 2 1 Z " fill="#404040" transform="translate(493,133)"/>
<path d="M0 0 C2 1 2 1 2 1 Z " fill="#404040" transform="translate(414,133)"/>
<path d="M0 0 C2 1 2 1 2 1 Z " fill="#404040" transform="translate(398,133)"/>
<path d="M0 0 C2 1 2 1 2 1 Z " fill="#404040" transform="translate(391,133)"/>
<path d="M0 0 C2 1 2 1 2 1 Z " fill="#000000" transform="translate(375,133)"/>
<path d="M0 0 C2 1 2 1 2 1 Z " fill="#000000" transform="translate(368,133)"/>
<path d="M0 0 C2 1 2 1 2 1 Z " fill="#000000" transform="translate(344,133)"/>
<path d="M0 0 C2 1 2 1 2 1 Z " fill="#404040" transform="translate(335,133)"/>
<path d="M0 0 C2 1 2 1 2 1 Z " fill="#7F7F7F" transform="translate(326,133)"/>
<path d="M0 0 C2 1 2 1 2 1 Z " fill="#404040" transform="translate(319,133)"/>
<path d="M0 0 C2 1 2 1 2 1 Z " fill="#FFFFFF" transform="translate(485,122)"/>
<path d="M0 0 C2 1 2 1 2 1 Z " fill="#FFFFFF" transform="translate(454,111)"/>
<path d="" fill="#007F7F" transform="translate(0,0)"/>
<path d="" fill="#007FFF" transform="translate(0,0)"/>
<path d="M0 0 C2 1 2 1 2 1 Z " fill="#00BFFF" transform="translate(577,45)"/>
<path d="M0 0 C2 1 2 1 2 1 Z " fill="#0040BF" transform="translate(305,45)"/>
<path d="" fill="#00BFBF" transform="translate(0,0)"/>
<path d="M0 0 C2 1 2 1 2 1 Z " fill="#007F00" transform="translate(289,32)"/>
<path d="M0 0 C2 1 2 1 2 1 Z " fill="#008AB4" transform="translate(298,26)"/>
<path d="" fill="#000000" transform="translate(0,0)"/>
<path d="" fill="#000000" transform="translate(0,0)"/>
<path d="" fill="#000000" transform="translate(0,0)"/>
<path d="" fill="#000000" transform="translate(0,0)"/>
<path d="" fill="#000000" transform="translate(0,0)"/>
<path d="" fill="#000000" transform="translate(0,0)"/>
<path d="" fill="#000000" transform="translate(0,0)"/>
<path d="" fill="#000000" transform="translate(0,0)"/>
<path d="" fill="#000000" transform="translate(0,0)"/>
<path d="" fill="#000000" transform="translate(0,0)"/>
<path d="" fill="#000000" transform="translate(0,0)"/>
<path d="" fill="#000000" transform="translate(0,0)"/>
<path d="" fill="#808080" transform="translate(0,0)"/>
<path d="" fill="#000000" transform="translate(0,0)"/>
<path d="" fill="#000000" transform="translate(0,0)"/>
<path d="" fill="#000000" transform="translate(0,0)"/>
<path d="" fill="#000000" transform="translate(0,0)"/>
<path d="" fill="#000000" transform="translate(0,0)"/>
<path d="" fill="#000000" transform="translate(0,0)"/>
<path d="" fill="#FFFFFF" transform="translate(0,0)"/>
<path d="" fill="#000000" transform="translate(0,0)"/>
<path d="" fill="#000000" transform="translate(0,0)"/>
<path d="" fill="#555555" transform="translate(0,0)"/>
<path d="" fill="#808080" transform="translate(0,0)"/>
<path d="" fill="#000000" transform="translate(0,0)"/>
<path d="" fill="#000000" transform="translate(0,0)"/>
<path d="" fill="#000000" transform="translate(0,0)"/>
<path d="" fill="#808080" transform="translate(0,0)"/>
<path d="" fill="#808080" transform="translate(0,0)"/>
<path d="" fill="#000000" transform="translate(0,0)"/>
<path d="" fill="#000000" transform="translate(0,0)"/>
<path d="" fill="#555555" transform="translate(0,0)"/>
<path d="" fill="#FFFFFF" transform="translate(0,0)"/>
<path d="" fill="#0000FF" transform="translate(0,0)"/>
<path d="" fill="#008080" transform="translate(0,0)"/>
<path d="" fill="#0055AA" transform="translate(0,0)"/>
<path d="" fill="#0080FF" transform="translate(0,0)"/>
<path d="" fill="#006699" transform="translate(0,0)"/>
<path d="" fill="#0080FF" transform="translate(0,0)"/>
<path d="" fill="#0000FF" transform="translate(0,0)"/>
<path d="" fill="#00BFFF" transform="translate(0,0)"/>
<path d="" fill="#00AAFF" transform="translate(0,0)"/>
<path d="" fill="#00AAAA" transform="translate(0,0)"/>
<path d="" fill="#00AAFF" transform="translate(0,0)"/>
<path d="" fill="#00FFFF" transform="translate(0,0)"/>
<path d="" fill="#00AAAA" transform="translate(0,0)"/>
<path d="" fill="#0000FF" transform="translate(0,0)"/>
<path d="" fill="#000000" transform="translate(0,0)"/>
<path d="" fill="#0000FF" transform="translate(0,0)"/>
<path d="" fill="#0055AA" transform="translate(0,0)"/>
<path d="" fill="#00AAAA" transform="translate(0,0)"/>
<path d="" fill="#0080FF" transform="translate(0,0)"/>
<path d="" fill="#0000FF" transform="translate(0,0)"/>
<path d="" fill="#0000FF" transform="translate(0,0)"/>
<path d="" fill="#00FFFF" transform="translate(0,0)"/>
<path d="" fill="#00FFFF" transform="translate(0,0)"/>
<path d="" fill="#00AAFF" transform="translate(0,0)"/>
<path d="" fill="#00FFFF" transform="translate(0,0)"/>
<path d="" fill="#0080BF" transform="translate(0,0)"/>
<path d="" fill="#00AAFF" transform="translate(0,0)"/>
<path d="" fill="#0055AA" transform="translate(0,0)"/>
<path d="" fill="#0080FF" transform="translate(0,0)"/>
<path d="" fill="#00BFBF" transform="translate(0,0)"/>
<path d="" fill="#0080FF" transform="translate(0,0)"/>
<path d="" fill="#0000FF" transform="translate(0,0)"/>
<path d="" fill="#0099CC" transform="translate(0,0)"/>
<path d="" fill="#0000FF" transform="translate(0,0)"/>
<path d="" fill="#55AAAA" transform="translate(0,0)"/>
<path d="" fill="#00FFFF" transform="translate(0,0)"/>
<path d="" fill="#008080" transform="translate(0,0)"/>
<path d="" fill="#00FFFF" transform="translate(0,0)"/>
<path d="" fill="#0080FF" transform="translate(0,0)"/>
<path d="" fill="#0080BF" transform="translate(0,0)"/>
<path d="" fill="#0080FF" transform="translate(0,0)"/>
<path d="" fill="#00FFFF" transform="translate(0,0)"/>
<path d="" fill="#008080" transform="translate(0,0)"/>
<path d="" fill="#008080" transform="translate(0,0)"/>
<path d="" fill="#0055AA" transform="translate(0,0)"/>
<path d="" fill="#0080FF" transform="translate(0,0)"/>
<path d="" fill="#0055AA" transform="translate(0,0)"/>
<path d="" fill="#00FFFF" transform="translate(0,0)"/>
<path d="" fill="#00FFFF" transform="translate(0,0)"/>
<path d="" fill="#00FFFF" transform="translate(0,0)"/>
<path d="" fill="#0000FF" transform="translate(0,0)"/>
<path d="" fill="#00FFFF" transform="translate(0,0)"/>
<path d="" fill="#0080FF" transform="translate(0,0)"/>
<path d="" fill="#00FFFF" transform="translate(0,0)"/>
<path d="" fill="#0080FF" transform="translate(0,0)"/>
<path d="" fill="#00BFFF" transform="translate(0,0)"/>
</svg>
